<?xml version="1.0" encoding="UTF-8"?> <svg xmlns="http://www.w3.org/2000/svg" width="180" height="313" viewBox="0 0 180 313" fill="none"> <path fill-rule="evenodd" clip-rule="evenodd" d="M68.184 5.00002C68.184 2.2386 70.4225 2.09411e-05 73.184 2.04583e-05L185.181 0C187.942 0 190.181 2.23858 190.181 5V16C190.181 18.7614 192.419 21 195.181 21L236 21C238.761 21 241 23.2386 241 26L241 66C241 68.7614 238.761 71 236 71H230.649C227.887 71 225.649 73.2386 225.649 76V97.734C225.649 100.495 227.887 102.734 230.649 102.734H261.62C264.381 102.734 266.62 104.973 266.62 107.734V113.13C266.62 113.805 266.072 114.353 265.397 114.353C264.721 114.353 264.173 114.9 264.173 115.576V137.482C264.173 140.244 261.935 142.482 259.173 142.482H220.615C217.854 142.482 215.615 144.721 215.615 147.482V151.241C215.615 154.003 217.854 156.241 220.615 156.241H259.174C261.935 156.241 264.174 158.48 264.174 161.241L264.174 202.303C264.174 205.064 261.935 207.303 259.174 207.303H255.414C252.653 207.303 250.414 209.541 250.414 212.303L250.414 237.114C250.414 239.731 248.293 241.853 245.675 241.853C243.058 241.853 240.936 243.975 240.936 246.592V256.53C240.936 259.063 238.883 261.116 236.35 261.116C233.817 261.116 231.763 263.17 231.763 265.703V272.015C231.763 274.777 229.525 277.015 226.763 277.015H188.822C186.711 277.015 185 278.726 185 280.837V281.763C185 283.363 186.297 284.659 187.896 284.659C189.496 284.659 190.792 285.956 190.792 287.556L190.792 307.177C190.792 309.939 188.554 312.177 185.792 312.177H151.152C148.391 312.177 146.152 309.939 146.152 307.177V293C146.152 290.239 143.913 288 141.152 288H97.9999C95.2385 288 92.9999 285.761 92.9999 283V282.015C92.9999 279.254 90.7613 277.015 87.9999 277.015H85.1082C82.3467 277.015 80.1082 274.777 80.1082 272.015V266.116C80.1082 263.355 77.8696 261.116 75.1082 261.116L60.9537 261.116C58.1923 261.116 55.9537 258.878 55.9537 256.116V242.573C55.9537 239.811 53.7151 237.573 50.9537 237.573H38.939C36.1776 237.573 33.939 235.334 33.939 232.573L33.939 180.504C33.939 177.743 36.1775 175.504 38.939 175.504H64.7126C67.474 175.504 69.7126 173.266 69.7126 170.504V161.241C69.7126 158.48 71.9511 156.241 74.7126 156.241H76.9999C79.7613 156.241 81.9999 154.003 81.9999 151.241L81.9999 147.482C81.9999 144.721 79.7613 142.482 76.9999 142.482H55.4497C52.6883 142.482 50.4497 140.244 50.4497 137.482V119.353C50.4497 116.591 52.6883 114.353 55.4497 114.353L108.13 114.353C110.892 114.353 113.13 112.114 113.13 109.353L113.13 93.9752C113.13 91.2138 110.892 88.9752 108.13 88.9752H103.148C100.387 88.9752 98.148 91.2138 98.148 93.9752V98.3457C98.148 101.107 95.9094 103.346 93.148 103.346L49.9463 103.346C47.1849 103.346 44.9463 101.107 44.9463 98.3457L44.9463 74.1009C44.9463 71.3395 47.1849 69.1009 49.9463 69.1009H52.9999C55.7613 69.1009 57.9999 66.8624 57.9999 64.101L57.9999 26C57.9999 23.2386 60.2385 21 62.9999 21H63.184C65.9454 21 68.184 18.7614 68.184 16V5.00002ZM0 172.001C0 170.896 0.895431 170.001 2 170.001H7.47845C8.58302 170.001 9.47845 170.896 9.47845 172.001V177.479C9.47845 178.584 8.58302 179.479 7.47845 179.479H2C0.89543 179.479 0 178.584 0 177.479V172.001ZM61.6227 302.393C60.5181 302.393 59.6227 303.289 59.6227 304.393V309.872C59.6227 310.976 60.5181 311.872 61.6227 311.872H67.1011C68.2057 311.872 69.1011 310.976 69.1011 309.872V304.393C69.1011 303.289 68.2057 302.393 67.1011 302.393H61.6227Z" fill="url(#paint0_radial_153_1074)"></path> <defs> <radialGradient id="paint0_radial_153_1074" cx="0" cy="0" r="1" gradientUnits="userSpaceOnUse" gradientTransform="translate(38.6711 266.758) rotate(-46.0199) scale(296.982 273.017)"> <stop stop-color="#FF9900"></stop> <stop offset="0.336956" stop-color="#8000FF" stop-opacity="0.7"></stop> <stop offset="0.758011" stop-color="#8000FF" stop-opacity="0.3"></stop> </radialGradient> </defs> </svg> 