<?xml version="1.0" encoding="UTF-8"?> <svg xmlns="http://www.w3.org/2000/svg" width="150" height="255" viewBox="0 0 150 255" fill="none"> <path fill-rule="evenodd" clip-rule="evenodd" d="M-50.0287 5C-50.0287 2.23857 -47.7901 -4.79331e-07 -45.0287 0L57.4897 1.77953e-05C60.2511 1.82746e-05 62.4897 2.23859 62.4897 5.00001L62.4897 51.5648C62.4897 54.3262 64.7282 56.5648 67.4897 56.5648L120.17 56.5648C122.932 56.5648 125.17 58.8034 125.17 61.5648L125.17 79.6944C125.17 82.4558 122.932 84.6944 120.17 84.6944L98.6771 84.6944C95.9157 84.6944 93.6771 86.933 93.6771 89.6944L93.6771 93.4534C93.6771 96.2148 95.9157 98.4534 98.6771 98.4534L100.907 98.4534C103.669 98.4534 105.907 100.692 105.907 103.453L105.907 112.716C105.907 115.478 108.146 117.716 110.907 117.716H136.681C139.442 117.716 141.681 119.955 141.681 122.716L141.681 130.031C141.681 132.224 143.458 134.001 145.651 134.001V134.001C147.843 134.001 149.62 135.778 149.62 137.97V139.51C149.62 141.702 147.843 143.479 145.651 143.479V143.479C143.458 143.479 141.681 145.256 141.681 147.449L141.681 174.785C141.681 177.546 139.442 179.785 136.681 179.785H124.666C121.905 179.785 119.666 182.023 119.666 184.785L119.666 198.328C119.666 201.09 117.428 203.328 114.666 203.328H100.512C97.7503 203.328 95.5118 205.567 95.5118 208.328V214.227C95.5118 216.989 93.2732 219.227 90.5118 219.227H87.9998C85.2384 219.227 82.9998 221.466 82.9998 224.227L82.9998 228C82.9998 230.761 80.7612 233 77.9998 233L34.4679 233C31.7065 233 29.4679 235.239 29.4679 238L29.4679 249.389C29.4679 252.151 27.2293 254.389 24.4679 254.389H-10.1725C-12.934 254.389 -15.1725 252.151 -15.1725 249.389V229.458C-15.1725 228.029 -14.0147 226.871 -12.5864 226.871V226.871C-11.1581 226.871 -10.0002 225.714 -10.0002 224.285V223.049C-10.0002 220.938 -11.7114 219.227 -13.8223 219.227H-51.1435C-53.9049 219.227 -56.1435 216.989 -56.1435 214.227L-56.1435 207.915C-56.1435 205.382 -58.1969 203.328 -60.73 203.328V203.328C-63.263 203.328 -65.3165 201.275 -65.3165 198.742V188.804C-65.3165 186.187 -67.4382 184.065 -70.0555 184.065V184.065C-72.6728 184.065 -74.7945 181.943 -74.7945 179.326V154.515C-74.7945 151.753 -77.0331 149.515 -79.7945 149.515H-83.5538C-86.3152 149.515 -88.5538 147.276 -88.5538 144.515L-88.5538 103.453C-88.5538 100.692 -86.3152 98.4533 -83.5538 98.4533L-44.9385 98.4533C-42.1771 98.4533 -39.9385 96.2148 -39.9385 93.4533V89.6944C-39.9385 86.9329 -42.1771 84.6944 -44.9385 84.6944L-83.5536 84.6944C-86.315 84.6944 -88.5536 82.4558 -88.5536 79.6944V57.788C-88.5536 57.1124 -89.1012 56.5648 -89.7768 56.5647V56.5647C-90.4523 56.5647 -91 56.0171 -91 55.3415V49.946C-91 47.1845 -88.7614 44.946 -85.9999 44.946L-55.0287 44.946C-52.2673 44.946 -50.0287 42.7074 -50.0287 39.946L-50.0287 5Z" fill="url(#paint0_radial_153_1120)"></path> <defs> <radialGradient id="paint0_radial_153_1120" cx="0" cy="0" r="1" gradientUnits="userSpaceOnUse" gradientTransform="translate(110.949 220.542) rotate(-142.093) scale(261.374 233.103)"> <stop stop-color="#FF9900"></stop> <stop offset="0.336956" stop-color="#8000FF" stop-opacity="0.7"></stop> <stop offset="0.758011" stop-color="#8000FF" stop-opacity="0.3"></stop> </radialGradient> </defs> </svg> 