<?xml version="1.0" encoding="UTF-8"?> <svg xmlns="http://www.w3.org/2000/svg" width="1238" height="719" viewBox="0 0 1238 719" fill="none"> <path d="M6.19 334.26V340.45M6.19 340.45V346.64M6.19 340.45H12.38M6.19 340.45H0M6.19 185.7V191.89M6.19 191.89V198.08M6.19 191.89H12.38M6.19 191.89H0M6.19 259.98V266.17M6.19 266.17V272.36M6.19 266.17H12.38M6.19 266.17H0M6.19 111.42V117.61M6.19 117.61V123.8M6.19 117.61H12.38M6.19 117.61H0M6.19 0V6.19M6.19 6.19V12.38M6.19 6.19H12.38M6.19 6.19L0 6.19M229.03 334.26V340.45M229.03 340.45V346.64M229.03 340.45H235.22M229.03 340.45H222.84M229.03 185.7V191.89M229.03 191.89V198.08M229.03 191.89H235.22M229.03 191.89H222.84M229.03 259.98V266.17M229.03 266.17V272.36M229.03 266.17H235.22M229.03 266.17H222.84M229.03 111.42V117.61M229.03 117.61V123.8M229.03 117.61H235.22M229.03 117.61H222.84M229.03 0V6.19M229.03 6.19V12.38M229.03 6.19H235.22M229.03 6.19L222.84 6.19M80.47 334.26V340.45M80.47 340.45V346.64M80.47 340.45H86.66M80.47 340.45H74.28M80.47 185.7V191.89M80.47 191.89V198.08M80.47 191.89H86.66M80.47 191.89H74.28M80.47 259.98V266.17M80.47 266.17V272.36M80.47 266.17H86.66M80.47 266.17H74.28M80.47 111.42V117.61M80.47 117.61V123.8M80.47 117.61H86.66M80.47 117.61H74.28M80.47 0V6.19M80.47 6.19V12.38M80.47 6.19H86.66M80.47 6.19L74.28 6.19M303.31 334.26V340.45M303.31 340.45V346.64M303.31 340.45H309.5M303.31 340.45H297.12M303.31 185.7V191.89M303.31 191.89V198.08M303.31 191.89H309.5M303.31 191.89H297.12M303.31 259.98V266.17M303.31 266.17V272.36M303.31 266.17H309.5M303.31 266.17H297.12M303.31 111.42V117.61M303.31 117.61V123.8M303.31 117.61H309.5M303.31 117.61H297.12M303.31 0V6.19M303.31 6.19V12.38M303.31 6.19H309.5M303.31 6.19L297.12 6.19M451.87 334.26V340.45M451.87 340.45V346.64M451.87 340.45H458.06M451.87 340.45H445.68M451.87 185.7V191.89M451.87 191.89V198.08M451.87 191.89H458.06M451.87 191.89H445.68M451.87 259.98V266.17M451.87 266.17V272.36M451.87 266.17H458.06M451.87 266.17H445.68M451.87 111.42V117.61M451.87 117.61V123.8M451.87 117.61H458.06M451.87 117.61H445.68M451.87 0V6.19M451.87 6.19V12.38M451.87 6.19H458.06M451.87 6.19L445.68 6.19M154.75 334.26V340.45M154.75 340.45V346.64M154.75 340.45H160.94M154.75 340.45H148.56M154.75 185.7V191.89M154.75 191.89V198.08M154.75 191.89H160.94M154.75 191.89H148.56M154.75 259.98V266.17M154.75 266.17V272.36M154.75 266.17H160.94M154.75 266.17H148.56M154.75 111.42V117.61M154.75 117.61V123.8M154.75 117.61H160.94M154.75 117.61H148.56M154.75 0V6.19M154.75 6.19V12.38M154.75 6.19H160.94M154.75 6.19L148.56 6.19M377.59 334.26V340.45M377.59 340.45V346.64M377.59 340.45H383.78M377.59 340.45H371.4M377.59 185.7V191.89M377.59 191.89V198.08M377.59 191.89H383.78M377.59 191.89H371.4M377.59 259.98V266.17M377.59 266.17V272.36M377.59 266.17H383.78M377.59 266.17H371.4M377.59 111.42V117.61M377.59 117.61V123.8M377.59 117.61H383.78M377.59 117.61H371.4M377.59 0V6.19M377.59 6.19V12.38M377.59 6.19H383.78M377.59 6.19L371.4 6.19M526.15 334.26V340.45M526.15 340.45V346.64M526.15 340.45H532.34M526.15 340.45H519.96M526.15 185.7V191.89M526.15 191.89V198.08M526.15 191.89H532.34M526.15 191.89H519.96M526.15 259.98V266.17M526.15 266.17V272.36M526.15 266.17H532.34M526.15 266.17H519.96M526.15 111.42V117.61M526.15 117.61V123.8M526.15 117.61H532.34M526.15 117.61H519.96M526.15 0V6.19M526.15 6.19V12.38M526.15 6.19H532.34M526.15 6.19L519.96 6.19M6.19 297.12V303.31M6.19 303.31V309.5M6.19 303.31H12.38M6.19 303.31H0M6.19 148.56V154.75M6.19 154.75V160.94M6.19 154.75H12.38M6.19 154.75H0M6.19 37.14V43.33M6.19 43.33V49.52M6.19 43.33H12.38M6.19 43.33H0M6.19 222.84V229.03M6.19 229.03V235.22M6.19 229.03H12.38M6.19 229.03H0M6.19 74.28V80.47M6.19 80.47V86.66M6.19 80.47H12.38M6.19 80.47H0M229.03 297.12V303.31M229.03 303.31V309.5M229.03 303.31H235.22M229.03 303.31H222.84M229.03 148.56V154.75M229.03 154.75V160.94M229.03 154.75H235.22M229.03 154.75H222.84M229.03 37.14V43.33M229.03 43.33V49.52M229.03 43.33H235.22M229.03 43.33H222.84M229.03 222.84V229.03M229.03 229.03V235.22M229.03 229.03H235.22M229.03 229.03H222.84M229.03 74.28V80.47M229.03 80.47V86.66M229.03 80.47H235.22M229.03 80.47H222.84M80.47 297.12V303.31M80.47 303.31V309.5M80.47 303.31H86.66M80.47 303.31H74.28M80.47 148.56V154.75M80.47 154.75V160.94M80.47 154.75H86.66M80.47 154.75H74.28M80.47 37.14V43.33M80.47 43.33V49.52M80.47 43.33H86.66M80.47 43.33H74.28M80.47 222.84V229.03M80.47 229.03V235.22M80.47 229.03H86.66M80.47 229.03H74.28M80.47 74.28V80.47M80.47 80.47V86.66M80.47 80.47H86.66M80.47 80.47H74.28M303.31 297.12V303.31M303.31 303.31V309.5M303.31 303.31H309.5M303.31 303.31H297.12M303.31 148.56V154.75M303.31 154.75V160.94M303.31 154.75H309.5M303.31 154.75H297.12M303.31 37.14V43.33M303.31 43.33V49.52M303.31 43.33H309.5M303.31 43.33H297.12M303.31 222.84V229.03M303.31 229.03V235.22M303.31 229.03H309.5M303.31 229.03H297.12M303.31 74.28V80.47M303.31 80.47V86.66M303.31 80.47H309.5M303.31 80.47H297.12M451.87 297.12V303.31M451.87 303.31V309.5M451.87 303.31H458.06M451.87 303.31H445.68M451.87 148.56V154.75M451.87 154.75V160.94M451.87 154.75H458.06M451.87 154.75H445.68M451.87 37.14V43.33M451.87 43.33V49.52M451.87 43.33H458.06M451.87 43.33H445.68M451.87 222.84V229.03M451.87 229.03V235.22M451.87 229.03H458.06M451.87 229.03H445.68M451.87 74.28V80.47M451.87 80.47V86.66M451.87 80.47H458.06M451.87 80.47H445.68M154.75 297.12V303.31M154.75 303.31V309.5M154.75 303.31H160.94M154.75 303.31H148.56M154.75 148.56V154.75M154.75 154.75V160.94M154.75 154.75H160.94M154.75 154.75H148.56M154.75 37.14V43.33M154.75 43.33V49.52M154.75 43.33H160.94M154.75 43.33H148.56M154.75 222.84V229.03M154.75 229.03V235.22M154.75 229.03H160.94M154.75 229.03H148.56M154.75 74.28V80.47M154.75 80.47V86.66M154.75 80.47H160.94M154.75 80.47H148.56M377.59 297.12V303.31M377.59 303.31V309.5M377.59 303.31H383.78M377.59 303.31H371.4M377.59 148.56V154.75M377.59 154.75V160.94M377.59 154.75H383.78M377.59 154.75H371.4M377.59 37.14V43.33M377.59 43.33V49.52M377.59 43.33H383.78M377.59 43.33H371.4M377.59 222.84V229.03M377.59 229.03V235.22M377.59 229.03H383.78M377.59 229.03H371.4M377.59 74.28V80.47M377.59 80.47V86.66M377.59 80.47H383.78M377.59 80.47H371.4M526.15 297.12V303.31M526.15 303.31V309.5M526.15 303.31H532.34M526.15 303.31H519.96M526.15 148.56V154.75M526.15 154.75V160.94M526.15 154.75H532.34M526.15 154.75H519.96M526.15 37.14V43.33M526.15 43.33V49.52M526.15 43.33H532.34M526.15 43.33H519.96M526.15 222.84V229.03M526.15 229.03V235.22M526.15 229.03H532.34M526.15 229.03H519.96M526.15 74.28V80.47M526.15 80.47V86.66M526.15 80.47H532.34M526.15 80.47H519.96M43.33 334.26V340.45M43.33 340.45V346.64M43.33 340.45H49.52M43.33 340.45H37.14M43.33 185.7V191.89M43.33 191.89V198.08M43.33 191.89H49.52M43.33 191.89H37.14M43.33 259.98V266.17M43.33 266.17V272.36M43.33 266.17H49.52M43.33 266.17H37.14M43.33 111.42V117.61M43.33 117.61V123.8M43.33 117.61H49.52M43.33 117.61H37.14M43.33 0V6.19M43.33 6.19V12.38M43.33 6.19H49.52M43.33 6.19L37.14 6.19M266.17 334.26V340.45M266.17 340.45V346.64M266.17 340.45H272.36M266.17 340.45H259.98M266.17 185.7V191.89M266.17 191.89V198.08M266.17 191.89H272.36M266.17 191.89H259.98M266.17 259.98V266.17M266.17 266.17V272.36M266.17 266.17H272.36M266.17 266.17H259.98M266.17 111.42V117.61M266.17 117.61V123.8M266.17 117.61H272.36M266.17 117.61H259.98M266.17 0V6.19M266.17 6.19V12.38M266.17 6.19H272.36M266.17 6.19L259.98 6.19M117.61 334.26V340.45M117.61 340.45V346.64M117.61 340.45H123.8M117.61 340.45H111.42M117.61 185.7V191.89M117.61 191.89V198.08M117.61 191.89H123.8M117.61 191.89H111.42M117.61 259.98V266.17M117.61 266.17V272.36M117.61 266.17H123.8M117.61 266.17H111.42M117.61 111.42V117.61M117.61 117.61V123.8M117.61 117.61H123.8M117.61 117.61H111.42M117.61 0V6.19M117.61 6.19V12.38M117.61 6.19H123.8M117.61 6.19L111.42 6.19M340.45 334.26V340.45M340.45 340.45V346.64M340.45 340.45H346.64M340.45 340.45H334.26M340.45 185.7V191.89M340.45 191.89V198.08M340.45 191.89H346.64M340.45 191.89H334.26M340.45 259.98V266.17M340.45 266.17V272.36M340.45 266.17H346.64M340.45 266.17H334.26M340.45 111.42V117.61M340.45 117.61V123.8M340.45 117.61H346.64M340.45 117.61H334.26M340.45 0V6.19M340.45 6.19V12.38M340.45 6.19H346.64M340.45 6.19L334.26 6.19M489.01 334.26V340.45M489.01 340.45V346.64M489.01 340.45H495.2M489.01 340.45H482.82M489.01 185.7V191.89M489.01 191.89V198.08M489.01 191.89H495.2M489.01 191.89H482.82M489.01 259.98V266.17M489.01 266.17V272.36M489.01 266.17H495.2M489.01 266.17H482.82M489.01 111.42V117.61M489.01 117.61V123.8M489.01 117.61H495.2M489.01 117.61H482.82M489.01 0V6.19M489.01 6.19V12.38M489.01 6.19H495.2M489.01 6.19L482.82 6.19M191.89 334.26V340.45M191.89 340.45V346.64M191.89 340.45H198.08M191.89 340.45H185.7M191.89 185.7V191.89M191.89 191.89V198.08M191.89 191.89H198.08M191.89 191.89H185.7M191.89 259.98V266.17M191.89 266.17V272.36M191.89 266.17H198.08M191.89 266.17H185.7M191.89 111.42V117.61M191.89 117.61V123.8M191.89 117.61H198.08M191.89 117.61H185.7M191.89 0V6.19M191.89 6.19V12.38M191.89 6.19H198.08M191.89 6.19L185.7 6.19M414.73 334.26V340.45M414.73 340.45V346.64M414.73 340.45H420.92M414.73 340.45H408.54M414.73 185.7V191.89M414.73 191.89V198.08M414.73 191.89H420.92M414.73 191.89H408.54M414.73 259.98V266.17M414.73 266.17V272.36M414.73 266.17H420.92M414.73 266.17H408.54M414.73 111.42V117.61M414.73 117.61V123.8M414.73 117.61H420.92M414.73 117.61H408.54M414.73 0V6.19M414.73 6.19V12.38M414.73 6.19H420.92M414.73 6.19L408.54 6.19M563.29 334.26V340.45M563.29 340.45V346.64M563.29 340.45H569.48M563.29 340.45H557.1M563.29 185.7V191.89M563.29 191.89V198.08M563.29 191.89H569.48M563.29 191.89H557.1M563.29 259.98V266.17M563.29 266.17V272.36M563.29 266.17H569.48M563.29 266.17H557.1M563.29 111.42V117.61M563.29 117.61V123.8M563.29 117.61H569.48M563.29 117.61H557.1M563.29 0V6.19M563.29 6.19V12.38M563.29 6.19H569.48M563.29 6.19L557.1 6.19M600.43 334.26V340.45M600.43 340.45V346.64M600.43 340.45H606.62M600.43 340.45H594.24M600.43 185.7V191.89M600.43 191.89V198.08M600.43 191.89H606.62M600.43 191.89H594.24M600.43 259.98V266.17M600.43 266.17V272.36M600.43 266.17H606.62M600.43 266.17H594.24M600.43 111.42V117.61M600.43 117.61V123.8M600.43 117.61H606.62M600.43 117.61H594.24M600.43 0V6.19M600.43 6.19V12.38M600.43 6.19H606.62M600.43 6.19L594.24 6.19M43.33 297.12V303.31M43.33 303.31V309.5M43.33 303.31H49.52M43.33 303.31H37.14M43.33 148.56V154.75M43.33 154.75V160.94M43.33 154.75H49.52M43.33 154.75H37.14M43.33 37.14V43.33M43.33 43.33V49.52M43.33 43.33H49.52M43.33 43.33H37.14M43.33 222.84V229.03M43.33 229.03V235.22M43.33 229.03H49.52M43.33 229.03H37.14M43.33 74.28V80.47M43.33 80.47V86.66M43.33 80.47H49.52M43.33 80.47H37.14M266.17 297.12V303.31M266.17 303.31V309.5M266.17 303.31H272.36M266.17 303.31H259.98M266.17 148.56V154.75M266.17 154.75V160.94M266.17 154.75H272.36M266.17 154.75H259.98M266.17 37.14V43.33M266.17 43.33V49.52M266.17 43.33H272.36M266.17 43.33H259.98M266.17 222.84V229.03M266.17 229.03V235.22M266.17 229.03H272.36M266.17 229.03H259.98M266.17 74.28V80.47M266.17 80.47V86.66M266.17 80.47H272.36M266.17 80.47H259.98M117.61 297.12V303.31M117.61 303.31V309.5M117.61 303.31H123.8M117.61 303.31H111.42M117.61 148.56V154.75M117.61 154.75V160.94M117.61 154.75H123.8M117.61 154.75H111.42M117.61 37.14V43.33M117.61 43.33V49.52M117.61 43.33H123.8M117.61 43.33H111.42M117.61 222.84V229.03M117.61 229.03V235.22M117.61 229.03H123.8M117.61 229.03H111.42M117.61 74.28V80.47M117.61 80.47V86.66M117.61 80.47H123.8M117.61 80.47H111.42M340.45 297.12V303.31M340.45 303.31V309.5M340.45 303.31H346.64M340.45 303.31H334.26M340.45 148.56V154.75M340.45 154.75V160.94M340.45 154.75H346.64M340.45 154.75H334.26M340.45 37.14V43.33M340.45 43.33V49.52M340.45 43.33H346.64M340.45 43.33H334.26M340.45 222.84V229.03M340.45 229.03V235.22M340.45 229.03H346.64M340.45 229.03H334.26M340.45 74.28V80.47M340.45 80.47V86.66M340.45 80.47H346.64M340.45 80.47H334.26M489.01 297.12V303.31M489.01 303.31V309.5M489.01 303.31H495.2M489.01 303.31H482.82M489.01 148.56V154.75M489.01 154.75V160.94M489.01 154.75H495.2M489.01 154.75H482.82M489.01 37.14V43.33M489.01 43.33V49.52M489.01 43.33H495.2M489.01 43.33H482.82M489.01 222.84V229.03M489.01 229.03V235.22M489.01 229.03H495.2M489.01 229.03H482.82M489.01 74.28V80.47M489.01 80.47V86.66M489.01 80.47H495.2M489.01 80.47H482.82M191.89 297.12V303.31M191.89 303.31V309.5M191.89 303.31H198.08M191.89 303.31H185.7M191.89 148.56V154.75M191.89 154.75V160.94M191.89 154.75H198.08M191.89 154.75H185.7M191.89 37.14V43.33M191.89 43.33V49.52M191.89 43.33H198.08M191.89 43.33H185.7M191.89 222.84V229.03M191.89 229.03V235.22M191.89 229.03H198.08M191.89 229.03H185.7M191.89 74.28V80.47M191.89 80.47V86.66M191.89 80.47H198.08M191.89 80.47H185.7M414.73 297.12V303.31M414.73 303.31V309.5M414.73 303.31H420.92M414.73 303.31H408.54M414.73 148.56V154.75M414.73 154.75V160.94M414.73 154.75H420.92M414.73 154.75H408.54M414.73 37.14V43.33M414.73 43.33V49.52M414.73 43.33H420.92M414.73 43.33H408.54M414.73 222.84V229.03M414.73 229.03V235.22M414.73 229.03H420.92M414.73 229.03H408.54M414.73 74.28V80.47M414.73 80.47V86.66M414.73 80.47H420.92M414.73 80.47H408.54M563.29 297.12V303.31M563.29 303.31V309.5M563.29 303.31H569.48M563.29 303.31H557.1M563.29 148.56V154.75M563.29 154.75V160.94M563.29 154.75H569.48M563.29 154.75H557.1M563.29 37.14V43.33M563.29 43.33V49.52M563.29 43.33H569.48M563.29 43.33H557.1M563.29 222.84V229.03M563.29 229.03V235.22M563.29 229.03H569.48M563.29 229.03H557.1M563.29 74.28V80.47M563.29 80.47V86.66M563.29 80.47H569.48M563.29 80.47H557.1M600.43 297.12V303.31M600.43 303.31V309.5M600.43 303.31H606.62M600.43 303.31H594.24M600.43 148.56V154.75M600.43 154.75V160.94M600.43 154.75H606.62M600.43 154.75H594.24M600.43 37.14V43.33M600.43 43.33V49.52M600.43 43.33H606.62M600.43 43.33H594.24M600.43 222.84V229.03M600.43 229.03V235.22M600.43 229.03H606.62M600.43 229.03H594.24M600.43 74.28V80.47M600.43 80.47V86.66M600.43 80.47H606.62M600.43 80.47H594.24M637.57 334.26V340.45M637.57 340.45V346.64M637.57 340.45H643.76M637.57 340.45H631.38M637.57 185.7V191.89M637.57 191.89V198.08M637.57 191.89H643.76M637.57 191.89H631.38M637.57 259.98V266.17M637.57 266.17V272.36M637.57 266.17H643.76M637.57 266.17H631.38M637.57 111.42V117.61M637.57 117.61V123.8M637.57 117.61H643.76M637.57 117.61H631.38M637.57 0V6.19M637.57 6.19V12.38M637.57 6.19H643.76M637.57 6.19L631.38 6.19M860.41 334.26V340.45M860.41 340.45V346.64M860.41 340.45H866.6M860.41 340.45H854.22M860.41 185.7V191.89M860.41 191.89V198.08M860.41 191.89H866.6M860.41 191.89H854.22M860.41 259.98V266.17M860.41 266.17V272.36M860.41 266.17H866.6M860.41 266.17H854.22M860.41 111.42V117.61M860.41 117.61V123.8M860.41 117.61H866.6M860.41 117.61H854.22M860.41 0V6.19M860.41 6.19V12.38M860.41 6.19H866.6M860.41 6.19L854.22 6.19M711.85 334.26V340.45M711.85 340.45V346.64M711.85 340.45H718.04M711.85 340.45H705.66M711.85 185.7V191.89M711.85 191.89V198.08M711.85 191.89H718.04M711.85 191.89H705.66M711.85 259.98V266.17M711.85 266.17V272.36M711.85 266.17H718.04M711.85 266.17H705.66M711.85 111.42V117.61M711.85 117.61V123.8M711.85 117.61H718.04M711.85 117.61H705.66M711.85 0V6.19M711.85 6.19V12.38M711.85 6.19H718.04M711.85 6.19L705.66 6.19M934.69 334.26V340.45M934.69 340.45V346.64M934.69 340.45H940.88M934.69 340.45H928.5M934.69 185.7V191.89M934.69 191.89V198.08M934.69 191.89H940.88M934.69 191.89H928.5M934.69 259.98V266.17M934.69 266.17V272.36M934.69 266.17H940.88M934.69 266.17H928.5M934.69 111.42V117.61M934.69 117.61V123.8M934.69 117.61H940.88M934.69 117.61H928.5M934.69 0V6.19M934.69 6.19V12.38M934.69 6.19H940.88M934.69 6.19L928.5 6.19M1083.25 334.26V340.45M1083.25 340.45V346.64M1083.25 340.45H1089.44M1083.25 340.45H1077.06M1083.25 185.7V191.89M1083.25 191.89V198.08M1083.25 191.89H1089.44M1083.25 191.89H1077.06M1083.25 259.98V266.17M1083.25 266.17V272.36M1083.25 266.17H1089.44M1083.25 266.17H1077.06M1083.25 111.42V117.61M1083.25 117.61V123.8M1083.25 117.61H1089.44M1083.25 117.61H1077.06M1083.25 0V6.19M1083.25 6.19V12.38M1083.25 6.19H1089.44M1083.25 6.19L1077.06 6.19M786.13 334.26V340.45M786.13 340.45V346.64M786.13 340.45H792.32M786.13 340.45H779.94M786.13 185.7V191.89M786.13 191.89V198.08M786.13 191.89H792.32M786.13 191.89H779.94M786.13 259.98V266.17M786.13 266.17V272.36M786.13 266.17H792.32M786.13 266.17H779.94M786.13 111.42V117.61M786.13 117.61V123.8M786.13 117.61H792.32M786.13 117.61H779.94M786.13 0V6.19M786.13 6.19V12.38M786.13 6.19H792.32M786.13 6.19L779.94 6.19M1008.97 334.26V340.45M1008.97 340.45V346.64M1008.97 340.45H1015.16M1008.97 340.45H1002.78M1008.97 185.7V191.89M1008.97 191.89V198.08M1008.97 191.89H1015.16M1008.97 191.89H1002.78M1008.97 259.98V266.17M1008.97 266.17V272.36M1008.97 266.17H1015.16M1008.97 266.17H1002.78M1008.97 111.42V117.61M1008.97 117.61V123.8M1008.97 117.61H1015.16M1008.97 117.61H1002.78M1008.97 0V6.19M1008.97 6.19V12.38M1008.97 6.19H1015.16M1008.97 6.19L1002.78 6.19M1157.53 334.26V340.45M1157.53 340.45V346.64M1157.53 340.45H1163.72M1157.53 340.45H1151.34M1157.53 185.7V191.89M1157.53 191.89V198.08M1157.53 191.89H1163.72M1157.53 191.89H1151.34M1157.53 259.98V266.17M1157.53 266.17V272.36M1157.53 266.17H1163.72M1157.53 266.17H1151.34M1157.53 111.42V117.61M1157.53 117.61V123.8M1157.53 117.61H1163.72M1157.53 117.61H1151.34M1157.53 0V6.19M1157.53 6.19V12.38M1157.53 6.19H1163.72M1157.53 6.19L1151.34 6.19M637.57 297.12V303.31M637.57 303.31V309.5M637.57 303.31H643.76M637.57 303.31H631.38M637.57 148.56V154.75M637.57 154.75V160.94M637.57 154.75H643.76M637.57 154.75H631.38M637.57 37.14V43.33M637.57 43.33V49.52M637.57 43.33H643.76M637.57 43.33H631.38M637.57 222.84V229.03M637.57 229.03V235.22M637.57 229.03H643.76M637.57 229.03H631.38M637.57 74.28V80.47M637.57 80.47V86.66M637.57 80.47H643.76M637.57 80.47H631.38M860.41 297.12V303.31M860.41 303.31V309.5M860.41 303.31H866.6M860.41 303.31H854.22M860.41 148.56V154.75M860.41 154.75V160.94M860.41 154.75H866.6M860.41 154.75H854.22M860.41 37.14V43.33M860.41 43.33V49.52M860.41 43.33H866.6M860.41 43.33H854.22M860.41 222.84V229.03M860.41 229.03V235.22M860.41 229.03H866.6M860.41 229.03H854.22M860.41 74.28V80.47M860.41 80.47V86.66M860.41 80.47H866.6M860.41 80.47H854.22M711.85 297.12V303.31M711.85 303.31V309.5M711.85 303.31H718.04M711.85 303.31H705.66M711.85 148.56V154.75M711.85 154.75V160.94M711.85 154.75H718.04M711.85 154.75H705.66M711.85 37.14V43.33M711.85 43.33V49.52M711.85 43.33H718.04M711.85 43.33H705.66M711.85 222.84V229.03M711.85 229.03V235.22M711.85 229.03H718.04M711.85 229.03H705.66M711.85 74.28V80.47M711.85 80.47V86.66M711.85 80.47H718.04M711.85 80.47H705.66M934.69 297.12V303.31M934.69 303.31V309.5M934.69 303.31H940.88M934.69 303.31H928.5M934.69 148.56V154.75M934.69 154.75V160.94M934.69 154.75H940.88M934.69 154.75H928.5M934.69 37.14V43.33M934.69 43.33V49.52M934.69 43.33H940.88M934.69 43.33H928.5M934.69 222.84V229.03M934.69 229.03V235.22M934.69 229.03H940.88M934.69 229.03H928.5M934.69 74.28V80.47M934.69 80.47V86.66M934.69 80.47H940.88M934.69 80.47H928.5M1083.25 297.12V303.31M1083.25 303.31V309.5M1083.25 303.31H1089.44M1083.25 303.31H1077.06M1083.25 148.56V154.75M1083.25 154.75V160.94M1083.25 154.75H1089.44M1083.25 154.75H1077.06M1083.25 37.14V43.33M1083.25 43.33V49.52M1083.25 43.33H1089.44M1083.25 43.33H1077.06M1083.25 222.84V229.03M1083.25 229.03V235.22M1083.25 229.03H1089.44M1083.25 229.03H1077.06M1083.25 74.28V80.47M1083.25 80.47V86.66M1083.25 80.47H1089.44M1083.25 80.47H1077.06M786.13 297.12V303.31M786.13 303.31V309.5M786.13 303.31H792.32M786.13 303.31H779.94M786.13 148.56V154.75M786.13 154.75V160.94M786.13 154.75H792.32M786.13 154.75H779.94M786.13 37.14V43.33M786.13 43.33V49.52M786.13 43.33H792.32M786.13 43.33H779.94M786.13 222.84V229.03M786.13 229.03V235.22M786.13 229.03H792.32M786.13 229.03H779.94M786.13 74.28V80.47M786.13 80.47V86.66M786.13 80.47H792.32M786.13 80.47H779.94M1008.97 297.12V303.31M1008.97 303.31V309.5M1008.97 303.31H1015.16M1008.97 303.31H1002.78M1008.97 148.56V154.75M1008.97 154.75V160.94M1008.97 154.75H1015.16M1008.97 154.75H1002.78M1008.97 37.14V43.33M1008.97 43.33V49.52M1008.97 43.33H1015.16M1008.97 43.33H1002.78M1008.97 222.84V229.03M1008.97 229.03V235.22M1008.97 229.03H1015.16M1008.97 229.03H1002.78M1008.97 74.28V80.47M1008.97 80.47V86.66M1008.97 80.47H1015.16M1008.97 80.47H1002.78M1157.53 297.12V303.31M1157.53 303.31V309.5M1157.53 303.31H1163.72M1157.53 303.31H1151.34M1157.53 148.56V154.75M1157.53 154.75V160.94M1157.53 154.75H1163.72M1157.53 154.75H1151.34M1157.53 37.14V43.33M1157.53 43.33V49.52M1157.53 43.33H1163.72M1157.53 43.33H1151.34M1157.53 222.84V229.03M1157.53 229.03V235.22M1157.53 229.03H1163.72M1157.53 229.03H1151.34M1157.53 74.28V80.47M1157.53 80.47V86.66M1157.53 80.47H1163.72M1157.53 80.47H1151.34M674.71 334.26V340.45M674.71 340.45V346.64M674.71 340.45H680.9M674.71 340.45H668.52M674.71 185.7V191.89M674.71 191.89V198.08M674.71 191.89H680.9M674.71 191.89H668.52M674.71 259.98V266.17M674.71 266.17V272.36M674.71 266.17H680.9M674.71 266.17H668.52M674.71 111.42V117.61M674.71 117.61V123.8M674.71 117.61H680.9M674.71 117.61H668.52M674.71 0V6.19M674.71 6.19V12.38M674.71 6.19H680.9M674.71 6.19L668.52 6.19M897.55 334.26V340.45M897.55 340.45V346.64M897.55 340.45H903.74M897.55 340.45H891.36M897.55 185.7V191.89M897.55 191.89V198.08M897.55 191.89H903.74M897.55 191.89H891.36M897.55 259.98V266.17M897.55 266.17V272.36M897.55 266.17H903.74M897.55 266.17H891.36M897.55 111.42V117.61M897.55 117.61V123.8M897.55 117.61H903.74M897.55 117.61H891.36M897.55 0V6.19M897.55 6.19V12.38M897.55 6.19H903.74M897.55 6.19L891.36 6.19M748.99 334.26V340.45M748.99 340.45V346.64M748.99 340.45H755.18M748.99 340.45H742.8M748.99 185.7V191.89M748.99 191.89V198.08M748.99 191.89H755.18M748.99 191.89H742.8M748.99 259.98V266.17M748.99 266.17V272.36M748.99 266.17H755.18M748.99 266.17H742.8M748.99 111.42V117.61M748.99 117.61V123.8M748.99 117.61H755.18M748.99 117.61H742.8M748.99 0V6.19M748.99 6.19V12.38M748.99 6.19H755.18M748.99 6.19L742.8 6.19M971.83 334.26V340.45M971.83 340.45V346.64M971.83 340.45H978.02M971.83 340.45H965.64M971.83 185.7V191.89M971.83 191.89V198.08M971.83 191.89H978.02M971.83 191.89H965.64M971.83 259.98V266.17M971.83 266.17V272.36M971.83 266.17H978.02M971.83 266.17H965.64M971.83 111.42V117.61M971.83 117.61V123.8M971.83 117.61H978.02M971.83 117.61H965.64M971.83 0V6.19M971.83 6.19V12.38M971.83 6.19H978.02M971.83 6.19L965.64 6.19M1120.39 334.26V340.45M1120.39 340.45V346.64M1120.39 340.45H1126.58M1120.39 340.45H1114.2M1120.39 185.7V191.89M1120.39 191.89V198.08M1120.39 191.89H1126.58M1120.39 191.89H1114.2M1120.39 259.98V266.17M1120.39 266.17V272.36M1120.39 266.17H1126.58M1120.39 266.17H1114.2M1120.39 111.42V117.61M1120.39 117.61V123.8M1120.39 117.61H1126.58M1120.39 117.61H1114.2M1120.39 0V6.19M1120.39 6.19V12.38M1120.39 6.19H1126.58M1120.39 6.19L1114.2 6.19M823.27 334.26V340.45M823.27 340.45V346.64M823.27 340.45H829.46M823.27 340.45H817.08M823.27 185.7V191.89M823.27 191.89V198.08M823.27 191.89H829.46M823.27 191.89H817.08M823.27 259.98V266.17M823.27 266.17V272.36M823.27 266.17H829.46M823.27 266.17H817.08M823.27 111.42V117.61M823.27 117.61V123.8M823.27 117.61H829.46M823.27 117.61H817.08M823.27 0V6.19M823.27 6.19V12.38M823.27 6.19H829.46M823.27 6.19L817.08 6.19M1046.11 334.26V340.45M1046.11 340.45V346.64M1046.11 340.45H1052.3M1046.11 340.45H1039.92M1046.11 185.7V191.89M1046.11 191.89V198.08M1046.11 191.89H1052.3M1046.11 191.89H1039.92M1046.11 259.98V266.17M1046.11 266.17V272.36M1046.11 266.17H1052.3M1046.11 266.17H1039.92M1046.11 111.42V117.61M1046.11 117.61V123.8M1046.11 117.61H1052.3M1046.11 117.61H1039.92M1046.11 0V6.19M1046.11 6.19V12.38M1046.11 6.19H1052.3M1046.11 6.19L1039.92 6.19M1194.67 334.26V340.45M1194.67 340.45V346.64M1194.67 340.45H1200.86M1194.67 340.45H1188.48M1194.67 185.7V191.89M1194.67 191.89V198.08M1194.67 191.89H1200.86M1194.67 191.89H1188.48M1194.67 259.98V266.17M1194.67 266.17V272.36M1194.67 266.17H1200.86M1194.67 266.17H1188.48M1194.67 111.42V117.61M1194.67 117.61V123.8M1194.67 117.61H1200.86M1194.67 117.61H1188.48M1194.67 0V6.19M1194.67 6.19V12.38M1194.67 6.19H1200.86M1194.67 6.19L1188.48 6.19M1231.81 334.26V340.45M1231.81 340.45V346.64M1231.81 340.45H1238M1231.81 340.45H1225.62M1231.81 185.7V191.89M1231.81 191.89V198.08M1231.81 191.89H1238M1231.81 191.89H1225.62M1231.81 259.98V266.17M1231.81 266.17V272.36M1231.81 266.17H1238M1231.81 266.17H1225.62M1231.81 111.42V117.61M1231.81 117.61V123.8M1231.81 117.61H1238M1231.81 117.61H1225.62M1231.81 0V6.19M1231.81 6.19V12.38M1231.81 6.19H1238M1231.81 6.19L1225.62 6.19M674.71 297.12V303.31M674.71 303.31V309.5M674.71 303.31H680.9M674.71 303.31H668.52M674.71 148.56V154.75M674.71 154.75V160.94M674.71 154.75H680.9M674.71 154.75H668.52M674.71 37.14V43.33M674.71 43.33V49.52M674.71 43.33H680.9M674.71 43.33H668.52M674.71 222.84V229.03M674.71 229.03V235.22M674.71 229.03H680.9M674.71 229.03H668.52M674.71 74.28V80.47M674.71 80.47V86.66M674.71 80.47H680.9M674.71 80.47H668.52M897.55 297.12V303.31M897.55 303.31V309.5M897.55 303.31H903.74M897.55 303.31H891.36M897.55 148.56V154.75M897.55 154.75V160.94M897.55 154.75H903.74M897.55 154.75H891.36M897.55 37.14V43.33M897.55 43.33V49.52M897.55 43.33H903.74M897.55 43.33H891.36M897.55 222.84V229.03M897.55 229.03V235.22M897.55 229.03H903.74M897.55 229.03H891.36M897.55 74.28V80.47M897.55 80.47V86.66M897.55 80.47H903.74M897.55 80.47H891.36M748.99 297.12V303.31M748.99 303.31V309.5M748.99 303.31H755.18M748.99 303.31H742.8M748.99 148.56V154.75M748.99 154.75V160.94M748.99 154.75H755.18M748.99 154.75H742.8M748.99 37.14V43.33M748.99 43.33V49.52M748.99 43.33H755.18M748.99 43.33H742.8M748.99 222.84V229.03M748.99 229.03V235.22M748.99 229.03H755.18M748.99 229.03H742.8M748.99 74.28V80.47M748.99 80.47V86.66M748.99 80.47H755.18M748.99 80.47H742.8M971.83 297.12V303.31M971.83 303.31V309.5M971.83 303.31H978.02M971.83 303.31H965.64M971.83 148.56V154.75M971.83 154.75V160.94M971.83 154.75H978.02M971.83 154.75H965.64M971.83 37.14V43.33M971.83 43.33V49.52M971.83 43.33H978.02M971.83 43.33H965.64M971.83 222.84V229.03M971.83 229.03V235.22M971.83 229.03H978.02M971.83 229.03H965.64M971.83 74.28V80.47M971.83 80.47V86.66M971.83 80.47H978.02M971.83 80.47H965.64M1120.39 297.12V303.31M1120.39 303.31V309.5M1120.39 303.31H1126.58M1120.39 303.31H1114.2M1120.39 148.56V154.75M1120.39 154.75V160.94M1120.39 154.75H1126.58M1120.39 154.75H1114.2M1120.39 37.14V43.33M1120.39 43.33V49.52M1120.39 43.33H1126.58M1120.39 43.33H1114.2M1120.39 222.84V229.03M1120.39 229.03V235.22M1120.39 229.03H1126.58M1120.39 229.03H1114.2M1120.39 74.28V80.47M1120.39 80.47V86.66M1120.39 80.47H1126.58M1120.39 80.47H1114.2M823.27 297.12V303.31M823.27 303.31V309.5M823.27 303.31H829.46M823.27 303.31H817.08M823.27 148.56V154.75M823.27 154.75V160.94M823.27 154.75H829.46M823.27 154.75H817.08M823.27 37.14V43.33M823.27 43.33V49.52M823.27 43.33H829.46M823.27 43.33H817.08M823.27 222.84V229.03M823.27 229.03V235.22M823.27 229.03H829.46M823.27 229.03H817.08M823.27 74.28V80.47M823.27 80.47V86.66M823.27 80.47H829.46M823.27 80.47H817.08M1046.11 297.12V303.31M1046.11 303.31V309.5M1046.11 303.31H1052.3M1046.11 303.31H1039.92M1046.11 148.56V154.75M1046.11 154.75V160.94M1046.11 154.75H1052.3M1046.11 154.75H1039.92M1046.11 37.14V43.33M1046.11 43.33V49.52M1046.11 43.33H1052.3M1046.11 43.33H1039.92M1046.11 222.84V229.03M1046.11 229.03V235.22M1046.11 229.03H1052.3M1046.11 229.03H1039.92M1046.11 74.28V80.47M1046.11 80.47V86.66M1046.11 80.47H1052.3M1046.11 80.47H1039.92M1194.67 297.12V303.31M1194.67 303.31V309.5M1194.67 303.31H1200.86M1194.67 303.31H1188.48M1194.67 148.56V154.75M1194.67 154.75V160.94M1194.67 154.75H1200.86M1194.67 154.75H1188.48M1194.67 37.14V43.33M1194.67 43.33V49.52M1194.67 43.33H1200.86M1194.67 43.33H1188.48M1194.67 222.84V229.03M1194.67 229.03V235.22M1194.67 229.03H1200.86M1194.67 229.03H1188.48M1194.67 74.28V80.47M1194.67 80.47V86.66M1194.67 80.47H1200.86M1194.67 80.47H1188.48M1231.81 297.12V303.31M1231.81 303.31V309.5M1231.81 303.31H1238M1231.81 303.31H1225.62M1231.81 148.56V154.75M1231.81 154.75V160.94M1231.81 154.75H1238M1231.81 154.75H1225.62M1231.81 37.14V43.33M1231.81 43.33V49.52M1231.81 43.33H1238M1231.81 43.33H1225.62M1231.81 222.84V229.03M1231.81 229.03V235.22M1231.81 229.03H1238M1231.81 229.03H1225.62M1231.81 74.28V80.47M1231.81 80.47V86.66M1231.81 80.47H1238M1231.81 80.47H1225.62M6.19 705.66V711.85M6.19 711.85V718.04M6.19 711.85H12.38M6.19 711.85H0M6.19 557.1V563.29M6.19 563.29V569.48M6.19 563.29H12.38M6.19 563.29H0M6.19 631.38V637.57M6.19 637.57V643.76M6.19 637.57H12.38M6.19 637.57H0M6.19 482.82V489.01M6.19 489.01V495.2M6.19 489.01H12.38M6.19 489.01H0M6.19 371.4V377.59M6.19 377.59V383.78M6.19 377.59H12.38M6.19 377.59H0M229.03 705.66V711.85M229.03 711.85V718.04M229.03 711.85H235.22M229.03 711.85H222.84M229.03 557.1V563.29M229.03 563.29V569.48M229.03 563.29H235.22M229.03 563.29H222.84M229.03 631.38V637.57M229.03 637.57V643.76M229.03 637.57H235.22M229.03 637.57H222.84M229.03 482.82V489.01M229.03 489.01V495.2M229.03 489.01H235.22M229.03 489.01H222.84M229.03 371.4V377.59M229.03 377.59V383.78M229.03 377.59H235.22M229.03 377.59H222.84M80.47 705.66V711.85M80.47 711.85V718.04M80.47 711.85H86.66M80.47 711.85H74.28M80.47 557.1V563.29M80.47 563.29V569.48M80.47 563.29H86.66M80.47 563.29H74.28M80.47 631.38V637.57M80.47 637.57V643.76M80.47 637.57H86.66M80.47 637.57H74.28M80.47 482.82V489.01M80.47 489.01V495.2M80.47 489.01H86.66M80.47 489.01H74.28M80.47 371.4V377.59M80.47 377.59V383.78M80.47 377.59H86.66M80.47 377.59H74.28M303.31 705.66V711.85M303.31 711.85V718.04M303.31 711.85H309.5M303.31 711.85H297.12M303.31 557.1V563.29M303.31 563.29V569.48M303.31 563.29H309.5M303.31 563.29H297.12M303.31 631.38V637.57M303.31 637.57V643.76M303.31 637.57H309.5M303.31 637.57H297.12M303.31 482.82V489.01M303.31 489.01V495.2M303.31 489.01H309.5M303.31 489.01H297.12M303.31 371.4V377.59M303.31 377.59V383.78M303.31 377.59H309.5M303.31 377.59H297.12M451.87 705.66V711.85M451.87 711.85V718.04M451.87 711.85H458.06M451.87 711.85H445.68M451.87 557.1V563.29M451.87 563.29V569.48M451.87 563.29H458.06M451.87 563.29H445.68M451.87 631.38V637.57M451.87 637.57V643.76M451.87 637.57H458.06M451.87 637.57H445.68M451.87 482.82V489.01M451.87 489.01V495.2M451.87 489.01H458.06M451.87 489.01H445.68M451.87 371.4V377.59M451.87 377.59V383.78M451.87 377.59H458.06M451.87 377.59H445.68M154.75 705.66V711.85M154.75 711.85V718.04M154.75 711.85H160.94M154.75 711.85H148.56M154.75 557.1V563.29M154.75 563.29V569.48M154.75 563.29H160.94M154.75 563.29H148.56M154.75 631.38V637.57M154.75 637.57V643.76M154.75 637.57H160.94M154.75 637.57H148.56M154.75 482.82V489.01M154.75 489.01V495.2M154.75 489.01H160.94M154.75 489.01H148.56M154.75 371.4V377.59M154.75 377.59V383.78M154.75 377.59H160.94M154.75 377.59H148.56M377.59 705.66V711.85M377.59 711.85V718.04M377.59 711.85H383.78M377.59 711.85H371.4M377.59 557.1V563.29M377.59 563.29V569.48M377.59 563.29H383.78M377.59 563.29H371.4M377.59 631.38V637.57M377.59 637.57V643.76M377.59 637.57H383.78M377.59 637.57H371.4M377.59 482.82V489.01M377.59 489.01V495.2M377.59 489.01H383.78M377.59 489.01H371.4M377.59 371.4V377.59M377.59 377.59V383.78M377.59 377.59H383.78M377.59 377.59H371.4M526.15 705.66V711.85M526.15 711.85V718.04M526.15 711.85H532.34M526.15 711.85H519.96M526.15 557.1V563.29M526.15 563.29V569.48M526.15 563.29H532.34M526.15 563.29H519.96M526.15 631.38V637.57M526.15 637.57V643.76M526.15 637.57H532.34M526.15 637.57H519.96M526.15 482.82V489.01M526.15 489.01V495.2M526.15 489.01H532.34M526.15 489.01H519.96M526.15 371.4V377.59M526.15 377.59V383.78M526.15 377.59H532.34M526.15 377.59H519.96M6.19 668.52V674.71M6.19 674.71V680.9M6.19 674.71H12.38M6.19 674.71H0M6.19 519.96V526.15M6.19 526.15V532.34M6.19 526.15H12.38M6.19 526.15H0M6.19 408.54V414.73M6.19 414.73V420.92M6.19 414.73H12.38M6.19 414.73H0M6.19 594.24V600.43M6.19 600.43V606.62M6.19 600.43H12.38M6.19 600.43H0M6.19 445.68V451.87M6.19 451.87V458.06M6.19 451.87H12.38M6.19 451.87H0M229.03 668.52V674.71M229.03 674.71V680.9M229.03 674.71H235.22M229.03 674.71H222.84M229.03 519.96V526.15M229.03 526.15V532.34M229.03 526.15H235.22M229.03 526.15H222.84M229.03 408.54V414.73M229.03 414.73V420.92M229.03 414.73H235.22M229.03 414.73H222.84M229.03 594.24V600.43M229.03 600.43V606.62M229.03 600.43H235.22M229.03 600.43H222.84M229.03 445.68V451.87M229.03 451.87V458.06M229.03 451.87H235.22M229.03 451.87H222.84M80.47 668.52V674.71M80.47 674.71V680.9M80.47 674.71H86.66M80.47 674.71H74.28M80.47 519.96V526.15M80.47 526.15V532.34M80.47 526.15H86.66M80.47 526.15H74.28M80.47 408.54V414.73M80.47 414.73V420.92M80.47 414.73H86.66M80.47 414.73H74.28M80.47 594.24V600.43M80.47 600.43V606.62M80.47 600.43H86.66M80.47 600.43H74.28M80.47 445.68V451.87M80.47 451.87V458.06M80.47 451.87H86.66M80.47 451.87H74.28M303.31 668.52V674.71M303.31 674.71V680.9M303.31 674.71H309.5M303.31 674.71H297.12M303.31 519.96V526.15M303.31 526.15V532.34M303.31 526.15H309.5M303.31 526.15H297.12M303.31 408.54V414.73M303.31 414.73V420.92M303.31 414.73H309.5M303.31 414.73H297.12M303.31 594.24V600.43M303.31 600.43V606.62M303.31 600.43H309.5M303.31 600.43H297.12M303.31 445.68V451.87M303.31 451.87V458.06M303.31 451.87H309.5M303.31 451.87H297.12M451.87 668.52V674.71M451.87 674.71V680.9M451.87 674.71H458.06M451.87 674.71H445.68M451.87 519.96V526.15M451.87 526.15V532.34M451.87 526.15H458.06M451.87 526.15H445.68M451.87 408.54V414.73M451.87 414.73V420.92M451.87 414.73H458.06M451.87 414.73H445.68M451.87 594.24V600.43M451.87 600.43V606.62M451.87 600.43H458.06M451.87 600.43H445.68M451.87 445.68V451.87M451.87 451.87V458.06M451.87 451.87H458.06M451.87 451.87H445.68M154.75 668.52V674.71M154.75 674.71V680.9M154.75 674.71H160.94M154.75 674.71H148.56M154.75 519.96V526.15M154.75 526.15V532.34M154.75 526.15H160.94M154.75 526.15H148.56M154.75 408.54V414.73M154.75 414.73V420.92M154.75 414.73H160.94M154.75 414.73H148.56M154.75 594.24V600.43M154.75 600.43V606.62M154.75 600.43H160.94M154.75 600.43H148.56M154.75 445.68V451.87M154.75 451.87V458.06M154.75 451.87H160.94M154.75 451.87H148.56M377.59 668.52V674.71M377.59 674.71V680.9M377.59 674.71H383.78M377.59 674.71H371.4M377.59 519.96V526.15M377.59 526.15V532.34M377.59 526.15H383.78M377.59 526.15H371.4M377.59 408.54V414.73M377.59 414.73V420.92M377.59 414.73H383.78M377.59 414.73H371.4M377.59 594.24V600.43M377.59 600.43V606.62M377.59 600.43H383.78M377.59 600.43H371.4M377.59 445.68V451.87M377.59 451.87V458.06M377.59 451.87H383.78M377.59 451.87H371.4M526.15 668.52V674.71M526.15 674.71V680.9M526.15 674.71H532.34M526.15 674.71H519.96M526.15 519.96V526.15M526.15 526.15V532.34M526.15 526.15H532.34M526.15 526.15H519.96M526.15 408.54V414.73M526.15 414.73V420.92M526.15 414.73H532.34M526.15 414.73H519.96M526.15 594.24V600.43M526.15 600.43V606.62M526.15 600.43H532.34M526.15 600.43H519.96M526.15 445.68V451.87M526.15 451.87V458.06M526.15 451.87H532.34M526.15 451.87H519.96M43.33 705.66V711.85M43.33 711.85V718.04M43.33 711.85H49.52M43.33 711.85H37.14M43.33 557.1V563.29M43.33 563.29V569.48M43.33 563.29H49.52M43.33 563.29H37.14M43.33 631.38V637.57M43.33 637.57V643.76M43.33 637.57H49.52M43.33 637.57H37.14M43.33 482.82V489.01M43.33 489.01V495.2M43.33 489.01H49.52M43.33 489.01H37.14M43.33 371.4V377.59M43.33 377.59V383.78M43.33 377.59H49.52M43.33 377.59H37.14M266.17 705.66V711.85M266.17 711.85V718.04M266.17 711.85H272.36M266.17 711.85H259.98M266.17 557.1V563.29M266.17 563.29V569.48M266.17 563.29H272.36M266.17 563.29H259.98M266.17 631.38V637.57M266.17 637.57V643.76M266.17 637.57H272.36M266.17 637.57H259.98M266.17 482.82V489.01M266.17 489.01V495.2M266.17 489.01H272.36M266.17 489.01H259.98M266.17 371.4V377.59M266.17 377.59V383.78M266.17 377.59H272.36M266.17 377.59H259.98M117.61 705.66V711.85M117.61 711.85V718.04M117.61 711.85H123.8M117.61 711.85H111.42M117.61 557.1V563.29M117.61 563.29V569.48M117.61 563.29H123.8M117.61 563.29H111.42M117.61 631.38V637.57M117.61 637.57V643.76M117.61 637.57H123.8M117.61 637.57H111.42M117.61 482.82V489.01M117.61 489.01V495.2M117.61 489.01H123.8M117.61 489.01H111.42M117.61 371.4V377.59M117.61 377.59V383.78M117.61 377.59H123.8M117.61 377.59H111.42M340.45 705.66V711.85M340.45 711.85V718.04M340.45 711.85H346.64M340.45 711.85H334.26M340.45 557.1V563.29M340.45 563.29V569.48M340.45 563.29H346.64M340.45 563.29H334.26M340.45 631.38V637.57M340.45 637.57V643.76M340.45 637.57H346.64M340.45 637.57H334.26M340.45 482.82V489.01M340.45 489.01V495.2M340.45 489.01H346.64M340.45 489.01H334.26M340.45 371.4V377.59M340.45 377.59V383.78M340.45 377.59H346.64M340.45 377.59H334.26M489.01 705.66V711.85M489.01 711.85V718.04M489.01 711.85H495.2M489.01 711.85H482.82M489.01 557.1V563.29M489.01 563.29V569.48M489.01 563.29H495.2M489.01 563.29H482.82M489.01 631.38V637.57M489.01 637.57V643.76M489.01 637.57H495.2M489.01 637.57H482.82M489.01 482.82V489.01M489.01 489.01V495.2M489.01 489.01H495.2M489.01 489.01H482.82M489.01 371.4V377.59M489.01 377.59V383.78M489.01 377.59H495.2M489.01 377.59H482.82M191.89 705.66V711.85M191.89 711.85V718.04M191.89 711.85H198.08M191.89 711.85H185.7M191.89 557.1V563.29M191.89 563.29V569.48M191.89 563.29H198.08M191.89 563.29H185.7M191.89 631.38V637.57M191.89 637.57V643.76M191.89 637.57H198.08M191.89 637.57H185.7M191.89 482.82V489.01M191.89 489.01V495.2M191.89 489.01H198.08M191.89 489.01H185.7M191.89 371.4V377.59M191.89 377.59V383.78M191.89 377.59H198.08M191.89 377.59H185.7M414.73 705.66V711.85M414.73 711.85V718.04M414.73 711.85H420.92M414.73 711.85H408.54M414.73 557.1V563.29M414.73 563.29V569.48M414.73 563.29H420.92M414.73 563.29H408.54M414.73 631.38V637.57M414.73 637.57V643.76M414.73 637.57H420.92M414.73 637.57H408.54M414.73 482.82V489.01M414.73 489.01V495.2M414.73 489.01H420.92M414.73 489.01H408.54M414.73 371.4V377.59M414.73 377.59V383.78M414.73 377.59H420.92M414.73 377.59H408.54M563.29 705.66V711.85M563.29 711.85V718.04M563.29 711.85H569.48M563.29 711.85H557.1M563.29 557.1V563.29M563.29 563.29V569.48M563.29 563.29H569.48M563.29 563.29H557.1M563.29 631.38V637.57M563.29 637.57V643.76M563.29 637.57H569.48M563.29 637.57H557.1M563.29 482.82V489.01M563.29 489.01V495.2M563.29 489.01H569.48M563.29 489.01H557.1M563.29 371.4V377.59M563.29 377.59V383.78M563.29 377.59H569.48M563.29 377.59H557.1M600.43 705.66V711.85M600.43 711.85V718.04M600.43 711.85H606.62M600.43 711.85H594.24M600.43 557.1V563.29M600.43 563.29V569.48M600.43 563.29H606.62M600.43 563.29H594.24M600.43 631.38V637.57M600.43 637.57V643.76M600.43 637.57H606.62M600.43 637.57H594.24M600.43 482.82V489.01M600.43 489.01V495.2M600.43 489.01H606.62M600.43 489.01H594.24M600.43 371.4V377.59M600.43 377.59V383.78M600.43 377.59H606.62M600.43 377.59H594.24M43.33 668.52V674.71M43.33 674.71V680.9M43.33 674.71H49.52M43.33 674.71H37.14M43.33 519.96V526.15M43.33 526.15V532.34M43.33 526.15H49.52M43.33 526.15H37.14M43.33 408.54V414.73M43.33 414.73V420.92M43.33 414.73H49.52M43.33 414.73H37.14M43.33 594.24V600.43M43.33 600.43V606.62M43.33 600.43H49.52M43.33 600.43H37.14M43.33 445.68V451.87M43.33 451.87V458.06M43.33 451.87H49.52M43.33 451.87H37.14M266.17 668.52V674.71M266.17 674.71V680.9M266.17 674.71H272.36M266.17 674.71H259.98M266.17 519.96V526.15M266.17 526.15V532.34M266.17 526.15H272.36M266.17 526.15H259.98M266.17 408.54V414.73M266.17 414.73V420.92M266.17 414.73H272.36M266.17 414.73H259.98M266.17 594.24V600.43M266.17 600.43V606.62M266.17 600.43H272.36M266.17 600.43H259.98M266.17 445.68V451.87M266.17 451.87V458.06M266.17 451.87H272.36M266.17 451.87H259.98M117.61 668.52V674.71M117.61 674.71V680.9M117.61 674.71H123.8M117.61 674.71H111.42M117.61 519.96V526.15M117.61 526.15V532.34M117.61 526.15H123.8M117.61 526.15H111.42M117.61 408.54V414.73M117.61 414.73V420.92M117.61 414.73H123.8M117.61 414.73H111.42M117.61 594.24V600.43M117.61 600.43V606.62M117.61 600.43H123.8M117.61 600.43H111.42M117.61 445.68V451.87M117.61 451.87V458.06M117.61 451.87H123.8M117.61 451.87H111.42M340.45 668.52V674.71M340.45 674.71V680.9M340.45 674.71H346.64M340.45 674.71H334.26M340.45 519.96V526.15M340.45 526.15V532.34M340.45 526.15H346.64M340.45 526.15H334.26M340.45 408.54V414.73M340.45 414.73V420.92M340.45 414.73H346.64M340.45 414.73H334.26M340.45 594.24V600.43M340.45 600.43V606.62M340.45 600.43H346.64M340.45 600.43H334.26M340.45 445.68V451.87M340.45 451.87V458.06M340.45 451.87H346.64M340.45 451.87H334.26M489.01 668.52V674.71M489.01 674.71V680.9M489.01 674.71H495.2M489.01 674.71H482.82M489.01 519.96V526.15M489.01 526.15V532.34M489.01 526.15H495.2M489.01 526.15H482.82M489.01 408.54V414.73M489.01 414.73V420.92M489.01 414.73H495.2M489.01 414.73H482.82M489.01 594.24V600.43M489.01 600.43V606.62M489.01 600.43H495.2M489.01 600.43H482.82M489.01 445.68V451.87M489.01 451.87V458.06M489.01 451.87H495.2M489.01 451.87H482.82M191.89 668.52V674.71M191.89 674.71V680.9M191.89 674.71H198.08M191.89 674.71H185.7M191.89 519.96V526.15M191.89 526.15V532.34M191.89 526.15H198.08M191.89 526.15H185.7M191.89 408.54V414.73M191.89 414.73V420.92M191.89 414.73H198.08M191.89 414.73H185.7M191.89 594.24V600.43M191.89 600.43V606.62M191.89 600.43H198.08M191.89 600.43H185.7M191.89 445.68V451.87M191.89 451.87V458.06M191.89 451.87H198.08M191.89 451.87H185.7M414.73 668.52V674.71M414.73 674.71V680.9M414.73 674.71H420.92M414.73 674.71H408.54M414.73 519.96V526.15M414.73 526.15V532.34M414.73 526.15H420.92M414.73 526.15H408.54M414.73 408.54V414.73M414.73 414.73V420.92M414.73 414.73H420.92M414.73 414.73H408.54M414.73 594.24V600.43M414.73 600.43V606.62M414.73 600.43H420.92M414.73 600.43H408.54M414.73 445.68V451.87M414.73 451.87V458.06M414.73 451.87H420.92M414.73 451.87H408.54M563.29 668.52V674.71M563.29 674.71V680.9M563.29 674.71H569.48M563.29 674.71H557.1M563.29 519.96V526.15M563.29 526.15V532.34M563.29 526.15H569.48M563.29 526.15H557.1M563.29 408.54V414.73M563.29 414.73V420.92M563.29 414.73H569.48M563.29 414.73H557.1M563.29 594.24V600.43M563.29 600.43V606.62M563.29 600.43H569.48M563.29 600.43H557.1M563.29 445.68V451.87M563.29 451.87V458.06M563.29 451.87H569.48M563.29 451.87H557.1M600.43 668.52V674.71M600.43 674.71V680.9M600.43 674.71H606.62M600.43 674.71H594.24M600.43 519.96V526.15M600.43 526.15V532.34M600.43 526.15H606.62M600.43 526.15H594.24M600.43 408.54V414.73M600.43 414.73V420.92M600.43 414.73H606.62M600.43 414.73H594.24M600.43 594.24V600.43M600.43 600.43V606.62M600.43 600.43H606.62M600.43 600.43H594.24M600.43 445.68V451.87M600.43 451.87V458.06M600.43 451.87H606.62M600.43 451.87H594.24M637.57 705.66V711.85M637.57 711.85V718.04M637.57 711.85H643.76M637.57 711.85H631.38M637.57 557.1V563.29M637.57 563.29V569.48M637.57 563.29H643.76M637.57 563.29H631.38M637.57 631.38V637.57M637.57 637.57V643.76M637.57 637.57H643.76M637.57 637.57H631.38M637.57 482.82V489.01M637.57 489.01V495.2M637.57 489.01H643.76M637.57 489.01H631.38M637.57 371.4V377.59M637.57 377.59V383.78M637.57 377.59H643.76M637.57 377.59H631.38M860.41 705.66V711.85M860.41 711.85V718.04M860.41 711.85H866.6M860.41 711.85H854.22M860.41 557.1V563.29M860.41 563.29V569.48M860.41 563.29H866.6M860.41 563.29H854.22M860.41 631.38V637.57M860.41 637.57V643.76M860.41 637.57H866.6M860.41 637.57H854.22M860.41 482.82V489.01M860.41 489.01V495.2M860.41 489.01H866.6M860.41 489.01H854.22M860.41 371.4V377.59M860.41 377.59V383.78M860.41 377.59H866.6M860.41 377.59H854.22M711.85 705.66V711.85M711.85 711.85V718.04M711.85 711.85H718.04M711.85 711.85H705.66M711.85 557.1V563.29M711.85 563.29V569.48M711.85 563.29H718.04M711.85 563.29H705.66M711.85 631.38V637.57M711.85 637.57V643.76M711.85 637.57H718.04M711.85 637.57H705.66M711.85 482.82V489.01M711.85 489.01V495.2M711.85 489.01H718.04M711.85 489.01H705.66M711.85 371.4V377.59M711.85 377.59V383.78M711.85 377.59H718.04M711.85 377.59H705.66M934.69 705.66V711.85M934.69 711.85V718.04M934.69 711.85H940.88M934.69 711.85H928.5M934.69 557.1V563.29M934.69 563.29V569.48M934.69 563.29H940.88M934.69 563.29H928.5M934.69 631.38V637.57M934.69 637.57V643.76M934.69 637.57H940.88M934.69 637.57H928.5M934.69 482.82V489.01M934.69 489.01V495.2M934.69 489.01H940.88M934.69 489.01H928.5M934.69 371.4V377.59M934.69 377.59V383.78M934.69 377.59H940.88M934.69 377.59H928.5M1083.25 705.66V711.85M1083.25 711.85V718.04M1083.25 711.85H1089.44M1083.25 711.85H1077.06M1083.25 557.1V563.29M1083.25 563.29V569.48M1083.25 563.29H1089.44M1083.25 563.29H1077.06M1083.25 631.38V637.57M1083.25 637.57V643.76M1083.25 637.57H1089.44M1083.25 637.57H1077.06M1083.25 482.82V489.01M1083.25 489.01V495.2M1083.25 489.01H1089.44M1083.25 489.01H1077.06M1083.25 371.4V377.59M1083.25 377.59V383.78M1083.25 377.59H1089.44M1083.25 377.59H1077.06M786.13 705.66V711.85M786.13 711.85V718.04M786.13 711.85H792.32M786.13 711.85H779.94M786.13 557.1V563.29M786.13 563.29V569.48M786.13 563.29H792.32M786.13 563.29H779.94M786.13 631.38V637.57M786.13 637.57V643.76M786.13 637.57H792.32M786.13 637.57H779.94M786.13 482.82V489.01M786.13 489.01V495.2M786.13 489.01H792.32M786.13 489.01H779.94M786.13 371.4V377.59M786.13 377.59V383.78M786.13 377.59H792.32M786.13 377.59H779.94M1008.97 705.66V711.85M1008.97 711.85V718.04M1008.97 711.85H1015.16M1008.97 711.85H1002.78M1008.97 557.1V563.29M1008.97 563.29V569.48M1008.97 563.29H1015.16M1008.97 563.29H1002.78M1008.97 631.38V637.57M1008.97 637.57V643.76M1008.97 637.57H1015.16M1008.97 637.57H1002.78M1008.97 482.82V489.01M1008.97 489.01V495.2M1008.97 489.01H1015.16M1008.97 489.01H1002.78M1008.97 371.4V377.59M1008.97 377.59V383.78M1008.97 377.59H1015.16M1008.97 377.59H1002.78M1157.53 705.66V711.85M1157.53 711.85V718.04M1157.53 711.85H1163.72M1157.53 711.85H1151.34M1157.53 557.1V563.29M1157.53 563.29V569.48M1157.53 563.29H1163.72M1157.53 563.29H1151.34M1157.53 631.38V637.57M1157.53 637.57V643.76M1157.53 637.57H1163.72M1157.53 637.57H1151.34M1157.53 482.82V489.01M1157.53 489.01V495.2M1157.53 489.01H1163.72M1157.53 489.01H1151.34M1157.53 371.4V377.59M1157.53 377.59V383.78M1157.53 377.59H1163.72M1157.53 377.59H1151.34M637.57 668.52V674.71M637.57 674.71V680.9M637.57 674.71H643.76M637.57 674.71H631.38M637.57 519.96V526.15M637.57 526.15V532.34M637.57 526.15H643.76M637.57 526.15H631.38M637.57 408.54V414.73M637.57 414.73V420.92M637.57 414.73H643.76M637.57 414.73H631.38M637.57 594.24V600.43M637.57 600.43V606.62M637.57 600.43H643.76M637.57 600.43H631.38M637.57 445.68V451.87M637.57 451.87V458.06M637.57 451.87H643.76M637.57 451.87H631.38M860.41 668.52V674.71M860.41 674.71V680.9M860.41 674.71H866.6M860.41 674.71H854.22M860.41 519.96V526.15M860.41 526.15V532.34M860.41 526.15H866.6M860.41 526.15H854.22M860.41 408.54V414.73M860.41 414.73V420.92M860.41 414.73H866.6M860.41 414.73H854.22M860.41 594.24V600.43M860.41 600.43V606.62M860.41 600.43H866.6M860.41 600.43H854.22M860.41 445.68V451.87M860.41 451.87V458.06M860.41 451.87H866.6M860.41 451.87H854.22M711.85 668.52V674.71M711.85 674.71V680.9M711.85 674.71H718.04M711.85 674.71H705.66M711.85 519.96V526.15M711.85 526.15V532.34M711.85 526.15H718.04M711.85 526.15H705.66M711.85 408.54V414.73M711.85 414.73V420.92M711.85 414.73H718.04M711.85 414.73H705.66M711.85 594.24V600.43M711.85 600.43V606.62M711.85 600.43H718.04M711.85 600.43H705.66M711.85 445.68V451.87M711.85 451.87V458.06M711.85 451.87H718.04M711.85 451.87H705.66M934.69 668.52V674.71M934.69 674.71V680.9M934.69 674.71H940.88M934.69 674.71H928.5M934.69 519.96V526.15M934.69 526.15V532.34M934.69 526.15H940.88M934.69 526.15H928.5M934.69 408.54V414.73M934.69 414.73V420.92M934.69 414.73H940.88M934.69 414.73H928.5M934.69 594.24V600.43M934.69 600.43V606.62M934.69 600.43H940.88M934.69 600.43H928.5M934.69 445.68V451.87M934.69 451.87V458.06M934.69 451.87H940.88M934.69 451.87H928.5M1083.25 668.52V674.71M1083.25 674.71V680.9M1083.25 674.71H1089.44M1083.25 674.71H1077.06M1083.25 519.96V526.15M1083.25 526.15V532.34M1083.25 526.15H1089.44M1083.25 526.15H1077.06M1083.25 408.54V414.73M1083.25 414.73V420.92M1083.25 414.73H1089.44M1083.25 414.73H1077.06M1083.25 594.24V600.43M1083.25 600.43V606.62M1083.25 600.43H1089.44M1083.25 600.43H1077.06M1083.25 445.68V451.87M1083.25 451.87V458.06M1083.25 451.87H1089.44M1083.25 451.87H1077.06M786.13 668.52V674.71M786.13 674.71V680.9M786.13 674.71H792.32M786.13 674.71H779.94M786.13 519.96V526.15M786.13 526.15V532.34M786.13 526.15H792.32M786.13 526.15H779.94M786.13 408.54V414.73M786.13 414.73V420.92M786.13 414.73H792.32M786.13 414.73H779.94M786.13 594.24V600.43M786.13 600.43V606.62M786.13 600.43H792.32M786.13 600.43H779.94M786.13 445.68V451.87M786.13 451.87V458.06M786.13 451.87H792.32M786.13 451.87H779.94M1008.97 668.52V674.71M1008.97 674.71V680.9M1008.97 674.71H1015.16M1008.97 674.71H1002.78M1008.97 519.96V526.15M1008.97 526.15V532.34M1008.97 526.15H1015.16M1008.97 526.15H1002.78M1008.97 408.54V414.73M1008.97 414.73V420.92M1008.97 414.73H1015.16M1008.97 414.73H1002.78M1008.97 594.24V600.43M1008.97 600.43V606.62M1008.97 600.43H1015.16M1008.97 600.43H1002.78M1008.97 445.68V451.87M1008.97 451.87V458.06M1008.97 451.87H1015.16M1008.97 451.87H1002.78M1157.53 668.52V674.71M1157.53 674.71V680.9M1157.53 674.71H1163.72M1157.53 674.71H1151.34M1157.53 519.96V526.15M1157.53 526.15V532.34M1157.53 526.15H1163.72M1157.53 526.15H1151.34M1157.53 408.54V414.73M1157.53 414.73V420.92M1157.53 414.73H1163.72M1157.53 414.73H1151.34M1157.53 594.24V600.43M1157.53 600.43V606.62M1157.53 600.43H1163.72M1157.53 600.43H1151.34M1157.53 445.68V451.87M1157.53 451.87V458.06M1157.53 451.87H1163.72M1157.53 451.87H1151.34M674.71 705.66V711.85M674.71 711.85V718.04M674.71 711.85H680.9M674.71 711.85H668.52M674.71 557.1V563.29M674.71 563.29V569.48M674.71 563.29H680.9M674.71 563.29H668.52M674.71 631.38V637.57M674.71 637.57V643.76M674.71 637.57H680.9M674.71 637.57H668.52M674.71 482.82V489.01M674.71 489.01V495.2M674.71 489.01H680.9M674.71 489.01H668.52M674.71 371.4V377.59M674.71 377.59V383.78M674.71 377.59H680.9M674.71 377.59H668.52M897.55 705.66V711.85M897.55 711.85V718.04M897.55 711.85H903.74M897.55 711.85H891.36M897.55 557.1V563.29M897.55 563.29V569.48M897.55 563.29H903.74M897.55 563.29H891.36M897.55 631.38V637.57M897.55 637.57V643.76M897.55 637.57H903.74M897.55 637.57H891.36M897.55 482.82V489.01M897.55 489.01V495.2M897.55 489.01H903.74M897.55 489.01H891.36M897.55 371.4V377.59M897.55 377.59V383.78M897.55 377.59H903.74M897.55 377.59H891.36M748.99 705.66V711.85M748.99 711.85V718.04M748.99 711.85H755.18M748.99 711.85H742.8M748.99 557.1V563.29M748.99 563.29V569.48M748.99 563.29H755.18M748.99 563.29H742.8M748.99 631.38V637.57M748.99 637.57V643.76M748.99 637.57H755.18M748.99 637.57H742.8M748.99 482.82V489.01M748.99 489.01V495.2M748.99 489.01H755.18M748.99 489.01H742.8M748.99 371.4V377.59M748.99 377.59V383.78M748.99 377.59H755.18M748.99 377.59H742.8M971.83 705.66V711.85M971.83 711.85V718.04M971.83 711.85H978.02M971.83 711.85H965.64M971.83 557.1V563.29M971.83 563.29V569.48M971.83 563.29H978.02M971.83 563.29H965.64M971.83 631.38V637.57M971.83 637.57V643.76M971.83 637.57H978.02M971.83 637.57H965.64M971.83 482.82V489.01M971.83 489.01V495.2M971.83 489.01H978.02M971.83 489.01H965.64M971.83 371.4V377.59M971.83 377.59V383.78M971.83 377.59H978.02M971.83 377.59H965.64M1120.39 705.66V711.85M1120.39 711.85V718.04M1120.39 711.85H1126.58M1120.39 711.85H1114.2M1120.39 557.1V563.29M1120.39 563.29V569.48M1120.39 563.29H1126.58M1120.39 563.29H1114.2M1120.39 631.38V637.57M1120.39 637.57V643.76M1120.39 637.57H1126.58M1120.39 637.57H1114.2M1120.39 482.82V489.01M1120.39 489.01V495.2M1120.39 489.01H1126.58M1120.39 489.01H1114.2M1120.39 371.4V377.59M1120.39 377.59V383.78M1120.39 377.59H1126.58M1120.39 377.59H1114.2M823.27 705.66V711.85M823.27 711.85V718.04M823.27 711.85H829.46M823.27 711.85H817.08M823.27 557.1V563.29M823.27 563.29V569.48M823.27 563.29H829.46M823.27 563.29H817.08M823.27 631.38V637.57M823.27 637.57V643.76M823.27 637.57H829.46M823.27 637.57H817.08M823.27 482.82V489.01M823.27 489.01V495.2M823.27 489.01H829.46M823.27 489.01H817.08M823.27 371.4V377.59M823.27 377.59V383.78M823.27 377.59H829.46M823.27 377.59H817.08M1046.11 705.66V711.85M1046.11 711.85V718.04M1046.11 711.85H1052.3M1046.11 711.85H1039.92M1046.11 557.1V563.29M1046.11 563.29V569.48M1046.11 563.29H1052.3M1046.11 563.29H1039.92M1046.11 631.38V637.57M1046.11 637.57V643.76M1046.11 637.57H1052.3M1046.11 637.57H1039.92M1046.11 482.82V489.01M1046.11 489.01V495.2M1046.11 489.01H1052.3M1046.11 489.01H1039.92M1046.11 371.4V377.59M1046.11 377.59V383.78M1046.11 377.59H1052.3M1046.11 377.59H1039.92M1194.67 705.66V711.85M1194.67 711.85V718.04M1194.67 711.85H1200.86M1194.67 711.85H1188.48M1194.67 557.1V563.29M1194.67 563.29V569.48M1194.67 563.29H1200.86M1194.67 563.29H1188.48M1194.67 631.38V637.57M1194.67 637.57V643.76M1194.67 637.57H1200.86M1194.67 637.57H1188.48M1194.67 482.82V489.01M1194.67 489.01V495.2M1194.67 489.01H1200.86M1194.67 489.01H1188.48M1194.67 371.4V377.59M1194.67 377.59V383.78M1194.67 377.59H1200.86M1194.67 377.59H1188.48M1231.81 705.66V711.85M1231.81 711.85V718.04M1231.81 711.85H1238M1231.81 711.85H1225.62M1231.81 557.1V563.29M1231.81 563.29V569.48M1231.81 563.29H1238M1231.81 563.29H1225.62M1231.81 631.38V637.57M1231.81 637.57V643.76M1231.81 637.57H1238M1231.81 637.57H1225.62M1231.81 482.82V489.01M1231.81 489.01V495.2M1231.81 489.01H1238M1231.81 489.01H1225.62M1231.81 371.4V377.59M1231.81 377.59V383.78M1231.81 377.59H1238M1231.81 377.59H1225.62M674.71 668.52V674.71M674.71 674.71V680.9M674.71 674.71H680.9M674.71 674.71H668.52M674.71 519.96V526.15M674.71 526.15V532.34M674.71 526.15H680.9M674.71 526.15H668.52M674.71 408.54V414.73M674.71 414.73V420.92M674.71 414.73H680.9M674.71 414.73H668.52M674.71 594.24V600.43M674.71 600.43V606.62M674.71 600.43H680.9M674.71 600.43H668.52M674.71 445.68V451.87M674.71 451.87V458.06M674.71 451.87H680.9M674.71 451.87H668.52M897.55 668.52V674.71M897.55 674.71V680.9M897.55 674.71H903.74M897.55 674.71H891.36M897.55 519.96V526.15M897.55 526.15V532.34M897.55 526.15H903.74M897.55 526.15H891.36M897.55 408.54V414.73M897.55 414.73V420.92M897.55 414.73H903.74M897.55 414.73H891.36M897.55 594.24V600.43M897.55 600.43V606.62M897.55 600.43H903.74M897.55 600.43H891.36M897.55 445.68V451.87M897.55 451.87V458.06M897.55 451.87H903.74M897.55 451.87H891.36M748.99 668.52V674.71M748.99 674.71V680.9M748.99 674.71H755.18M748.99 674.71H742.8M748.99 519.96V526.15M748.99 526.15V532.34M748.99 526.15H755.18M748.99 526.15H742.8M748.99 408.54V414.73M748.99 414.73V420.92M748.99 414.73H755.18M748.99 414.73H742.8M748.99 594.24V600.43M748.99 600.43V606.62M748.99 600.43H755.18M748.99 600.43H742.8M748.99 445.68V451.87M748.99 451.87V458.06M748.99 451.87H755.18M748.99 451.87H742.8M971.83 668.52V674.71M971.83 674.71V680.9M971.83 674.71H978.02M971.83 674.71H965.64M971.83 519.96V526.15M971.83 526.15V532.34M971.83 526.15H978.02M971.83 526.15H965.64M971.83 408.54V414.73M971.83 414.73V420.92M971.83 414.73H978.02M971.83 414.73H965.64M971.83 594.24V600.43M971.83 600.43V606.62M971.83 600.43H978.02M971.83 600.43H965.64M971.83 445.68V451.87M971.83 451.87V458.06M971.83 451.87H978.02M971.83 451.87H965.64M1120.39 668.52V674.71M1120.39 674.71V680.9M1120.39 674.71H1126.58M1120.39 674.71H1114.2M1120.39 519.96V526.15M1120.39 526.15V532.34M1120.39 526.15H1126.58M1120.39 526.15H1114.2M1120.39 408.54V414.73M1120.39 414.73V420.92M1120.39 414.73H1126.58M1120.39 414.73H1114.2M1120.39 594.24V600.43M1120.39 600.43V606.62M1120.39 600.43H1126.58M1120.39 600.43H1114.2M1120.39 445.68V451.87M1120.39 451.87V458.06M1120.39 451.87H1126.58M1120.39 451.87H1114.2M823.27 668.52V674.71M823.27 674.71V680.9M823.27 674.71H829.46M823.27 674.71H817.08M823.27 519.96V526.15M823.27 526.15V532.34M823.27 526.15H829.46M823.27 526.15H817.08M823.27 408.54V414.73M823.27 414.73V420.92M823.27 414.73H829.46M823.27 414.73H817.08M823.27 594.24V600.43M823.27 600.43V606.62M823.27 600.43H829.46M823.27 600.43H817.08M823.27 445.68V451.87M823.27 451.87V458.06M823.27 451.87H829.46M823.27 451.87H817.08M1046.11 668.52V674.71M1046.11 674.71V680.9M1046.11 674.71H1052.3M1046.11 674.71H1039.92M1046.11 519.96V526.15M1046.11 526.15V532.34M1046.11 526.15H1052.3M1046.11 526.15H1039.92M1046.11 408.54V414.73M1046.11 414.73V420.92M1046.11 414.73H1052.3M1046.11 414.73H1039.92M1046.11 594.24V600.43M1046.11 600.43V606.62M1046.11 600.43H1052.3M1046.11 600.43H1039.92M1046.11 445.68V451.87M1046.11 451.87V458.06M1046.11 451.87H1052.3M1046.11 451.87H1039.92M1194.67 668.52V674.71M1194.67 674.71V680.9M1194.67 674.71H1200.86M1194.67 674.71H1188.48M1194.67 519.96V526.15M1194.67 526.15V532.34M1194.67 526.15H1200.86M1194.67 526.15H1188.48M1194.67 408.54V414.73M1194.67 414.73V420.92M1194.67 414.73H1200.86M1194.67 414.73H1188.48M1194.67 594.24V600.43M1194.67 600.43V606.62M1194.67 600.43H1200.86M1194.67 600.43H1188.48M1194.67 445.68V451.87M1194.67 451.87V458.06M1194.67 451.87H1200.86M1194.67 451.87H1188.48M1231.81 668.52V674.71M1231.81 674.71V680.9M1231.81 674.71H1238M1231.81 674.71H1225.62M1231.81 519.96V526.15M1231.81 526.15V532.34M1231.81 526.15H1238M1231.81 526.15H1225.62M1231.81 408.54V414.73M1231.81 414.73V420.92M1231.81 414.73H1238M1231.81 414.73H1225.62M1231.81 594.24V600.43M1231.81 600.43V606.62M1231.81 600.43H1238M1231.81 600.43H1225.62M1231.81 445.68V451.87M1231.81 451.87V458.06M1231.81 451.87H1238M1231.81 451.87H1225.62" stroke="url(#paint0_linear_179_3)" stroke-width="0.619"></path> <defs> <linearGradient id="paint0_linear_179_3" x1="21.3555" y1="27.5455" x2="1219.68" y2="668.84" gradientUnits="userSpaceOnUse"> <stop stop-color="white" stop-opacity="0.42"></stop> <stop offset="0.515625" stop-color="#CBCBCB" stop-opacity="0.18"></stop> <stop offset="1" stop-color="white" stop-opacity="0.42"></stop> </linearGradient> </defs> </svg> 