<svg width="325" height="76" viewBox="0 0 325 76" fill="none" xmlns="http://www.w3.org/2000/svg">
<path d="M230.548 64.7974V68.3654H203.171V65.5227L219.396 49.6307C223.801 45.2827 224.637 42.6614 224.637 39.9854C224.637 35.4694 221.46 32.6814 215.493 32.6814C210.921 32.6814 207.408 34.0747 204.844 37.0294L202 34.5774C205.011 31.0081 209.861 29.0001 215.828 29.0001C223.745 29.0001 228.764 33.0147 228.764 39.5387C228.764 43.2747 227.593 46.6201 222.352 51.7494L209.08 64.7974H230.548Z" fill="white"/>
<path d="M258.041 49.8507C258.041 39.424 253.359 33.68 246.556 33.68C239.753 33.68 235.069 39.424 235.069 49.8507C235.069 60.2774 239.753 66.02 246.556 66.02C253.359 66.02 258.041 60.2774 258.041 49.8507ZM231 49.8507C231 37.416 237.523 30 246.556 30C255.588 30 262.168 37.416 262.168 49.8507C262.168 62.284 255.588 69.7 246.556 69.7C237.523 69.7 231 62.284 231 49.8507Z" fill="white"/>
<path d="M290.548 65.7974V69.3654H263.171V66.5227L279.396 50.6307C283.801 46.2827 284.637 43.6614 284.637 40.9854C284.637 36.4694 281.46 33.6814 275.492 33.6814C270.921 33.6814 267.408 35.0747 264.844 38.0294L262 35.5774C265.011 32.0081 269.863 30.0001 275.828 30.0001C283.745 30.0001 288.764 34.0147 288.764 40.5387C288.764 44.2747 287.593 47.6201 282.352 52.7494L269.08 65.7974H290.548Z" fill="white"/>
<path d="M324.746 58.4734H316.939V68.7334H312.924V58.4734H290.9V55.5734L311.586 29.7028H316.047L296.086 54.9054H313.036V45.8721H316.939V54.9054H324.746V58.4734Z" fill="white"/>
<path d="M158.593 75.5894H119V54.5347H158.593V75.5894Z" fill="white"/>
<path d="M158.593 48.3228H119V27.2681H158.593V48.3228Z" fill="white"/>
<path d="M21.058 35.7403V35.791L21.0273 35.771L21.058 35.7403Z" fill="white"/>
<path d="M21.0276 35.7709L21.0583 35.7402V35.7909L21.0276 35.7709Z" fill="white"/>
<path d="M210 2.67029e-05H231.055V21.0547H210V2.67029e-05Z" fill="white"/>
<path d="M56.848 0.0520929V29.7201L50.8067 35.7708L35.9227 50.6561L21.0587 35.7908V35.7401L21.028 35.7708L21.0587 35.7908V75.5921H0V0.00142866H21.0587V6.02276L35.9227 20.8868L56.7973 0.00142866L56.848 0.0520929Z" fill="white"/>
<path d="M21.058 35.7403V35.791L21.0273 35.771L21.058 35.7403Z" fill="white"/>
<path d="M202.364 4.35236e-05V21.0574H194.993V75.5907H173.945V21.0574H167V4.35236e-05H202.364Z" fill="white"/>
<path d="M158.593 21.0546H119V-3.83131e-06H158.593V21.0546Z" fill="white"/>
<path d="M111.317 75.5894H71.7236V54.5348H111.317V75.5894Z" fill="white"/>
<path d="M111.317 48.3228H71.7236V27.2681H111.317V48.3228Z" fill="white"/>
<path d="M111.317 21.0547H71.7236V1.14275e-05H111.317V21.0547Z" fill="white"/>
</svg>
