<?xml version="1.0" encoding="UTF-8"?> <svg xmlns="http://www.w3.org/2000/svg" width="1308" height="882" viewBox="0 0 1308 882" fill="none"> <path fill-rule="evenodd" clip-rule="evenodd" d="M1298 698C1303.52 698 1308 693.523 1308 688L1308 238C1308 232.477 1303.52 228 1298 228L1149 228C1143.48 228 1139 223.523 1139 218L1139 104C1139 98.4771 1134.52 94 1129 94L916.001 94C910.479 94 906.001 89.5229 906.001 84L906.001 9.99998C906.001 4.47713 901.524 -1.8715e-05 896.001 -1.80091e-05L388.001 4.69248e-05C382.478 4.76308e-05 378.001 4.47719 378.001 10L378.001 72C378.001 77.5228 373.524 82 368.001 82L201.001 82C195.478 82 191.001 86.4771 191.001 92L191.001 213C191.001 218.523 186.524 223 181.001 223L48.0013 223C42.4785 223 38.0013 227.477 38.0013 233L38.0013 346.869C38.0013 352.392 33.5241 356.869 28.0013 356.869L10.0002 356.869C4.47736 356.869 0.000204127 361.346 0.000205654 366.869L0.00030553 728.098C0.000307057 733.621 4.47747 738.098 10.0003 738.098L28.0014 738.098C33.5242 738.098 38.0014 742.575 38.0014 748.098L38.0014 771C38.0014 776.523 42.4785 781 48.0014 781L181.001 781C186.524 781 191.001 785.477 191.001 791L191.001 828C191.001 833.523 195.478 838 201.001 838L368.001 838C373.524 838 378.001 842.477 378.001 848L378.001 872C378.001 877.523 382.479 882 388.001 882L896.001 882C901.524 882 906.001 877.523 906.001 872L906.001 861C906.001 855.477 910.479 851 916.001 851L1129 851C1134.52 851 1139 846.523 1139 841L1139 791C1139 785.477 1143.48 781 1149 781L1193 781C1198.52 781 1203 776.523 1203 771L1203 708C1203 702.477 1207.48 698 1213 698L1298 698ZM1206.23 201.232C1211.76 201.232 1216.23 196.754 1216.23 191.232L1216.23 182C1216.23 176.477 1211.76 172 1206.23 172L1197 172C1191.48 172 1187 176.477 1187 182L1187 191.232C1187 196.754 1191.48 201.232 1197 201.232L1206.23 201.232ZM1030.16 9.35157C1035.68 9.35157 1040.16 13.8287 1040.16 19.3516L1040.16 28.5832C1040.16 34.106 1035.68 38.5832 1030.16 38.5832L1020.93 38.5832C1015.41 38.5832 1010.93 34.106 1010.93 28.5832L1010.93 19.3516C1010.93 13.8287 1015.41 9.35157 1020.93 9.35157L1030.16 9.35157ZM125.067 815.766C130.59 815.766 135.067 820.243 135.067 825.766L135.067 834.997C135.067 840.52 130.59 844.997 125.067 844.997L115.836 844.997C110.313 844.997 105.836 840.52 105.836 834.997L105.836 825.766C105.836 820.243 110.313 815.766 115.836 815.766L125.067 815.766Z" fill="#13002B"></path> <path fill-rule="evenodd" clip-rule="evenodd" d="M1298 698C1303.52 698 1308 693.523 1308 688L1308 238C1308 232.477 1303.52 228 1298 228L1149 228C1143.48 228 1139 223.523 1139 218L1139 104C1139 98.4771 1134.52 94 1129 94L916.001 94C910.479 94 906.001 89.5229 906.001 84L906.001 9.99998C906.001 4.47713 901.524 -1.8715e-05 896.001 -1.80091e-05L388.001 4.69248e-05C382.478 4.76308e-05 378.001 4.47719 378.001 10L378.001 72C378.001 77.5228 373.524 82 368.001 82L201.001 82C195.478 82 191.001 86.4771 191.001 92L191.001 213C191.001 218.523 186.524 223 181.001 223L48.0013 223C42.4785 223 38.0013 227.477 38.0013 233L38.0013 346.869C38.0013 352.392 33.5241 356.869 28.0013 356.869L10.0002 356.869C4.47736 356.869 0.000204127 361.346 0.000205654 366.869L0.00030553 728.098C0.000307057 733.621 4.47747 738.098 10.0003 738.098L28.0014 738.098C33.5242 738.098 38.0014 742.575 38.0014 748.098L38.0014 771C38.0014 776.523 42.4785 781 48.0014 781L181.001 781C186.524 781 191.001 785.477 191.001 791L191.001 828C191.001 833.523 195.478 838 201.001 838L368.001 838C373.524 838 378.001 842.477 378.001 848L378.001 872C378.001 877.523 382.479 882 388.001 882L896.001 882C901.524 882 906.001 877.523 906.001 872L906.001 861C906.001 855.477 910.479 851 916.001 851L1129 851C1134.52 851 1139 846.523 1139 841L1139 791C1139 785.477 1143.48 781 1149 781L1193 781C1198.52 781 1203 776.523 1203 771L1203 708C1203 702.477 1207.48 698 1213 698L1298 698ZM1206.23 201.232C1211.76 201.232 1216.23 196.754 1216.23 191.232L1216.23 182C1216.23 176.477 1211.76 172 1206.23 172L1197 172C1191.48 172 1187 176.477 1187 182L1187 191.232C1187 196.754 1191.48 201.232 1197 201.232L1206.23 201.232ZM1030.16 9.35157C1035.68 9.35157 1040.16 13.8287 1040.16 19.3516L1040.16 28.5832C1040.16 34.106 1035.68 38.5832 1030.16 38.5832L1020.93 38.5832C1015.41 38.5832 1010.93 34.106 1010.93 28.5832L1010.93 19.3516C1010.93 13.8287 1015.41 9.35157 1020.93 9.35157L1030.16 9.35157ZM125.067 815.766C130.59 815.766 135.067 820.243 135.067 825.766L135.067 834.997C135.067 840.52 130.59 844.997 125.067 844.997L115.836 844.997C110.313 844.997 105.836 840.52 105.836 834.997L105.836 825.766C105.836 820.243 110.313 815.766 115.836 815.766L125.067 815.766Z" fill="url(#paint0_radial_1076_54)"></path> <defs> <radialGradient id="paint0_radial_1076_54" cx="0" cy="0" r="1" gradientUnits="userSpaceOnUse" gradientTransform="translate(80.004 -186.5) rotate(45) scale(1900.7 1900.7)"> <stop stop-color="#FF9900"></stop> <stop offset="0.621341" stop-color="#8000FF" stop-opacity="0.65"></stop> <stop offset="0.994059" stop-opacity="0"></stop> </radialGradient> </defs> </svg> 