<?xml version="1.0" encoding="UTF-8"?> <svg xmlns="http://www.w3.org/2000/svg" width="1199" height="629" viewBox="0 0 1199 629" fill="none"><path fill-rule="evenodd" clip-rule="evenodd" d="M-61 184C-66.5228 184 -71 188.477 -71 194L-71 495C-71 500.523 -66.5228 505 -61 505L116 505C121.523 505 126 509.477 126 515L126 556C126 561.523 130.477 566 136 566L373 566C378.523 566 383 570.477 383 576L383 585C383 590.523 387.477 595 393 595L849 595C854.523 595 859 590.523 859 585L859 556C859 550.477 863.478 546 869 546L927 546C932.523 546 937 541.523 937 536L937 484C937 478.477 941.477 474 947 474L1189 474C1194.52 474 1199 469.523 1199 464L1199 111C1199 105.477 1194.52 101 1189 101L947 101C941.477 101 937 96.5231 937 91.0002L937 54.0002C937 48.4774 932.523 44.0002 927 44.0002L869 44.0002C863.477 44.0002 859 39.5231 859 34.0003L859 10.0001C859 4.47731 854.523 0.000133107 849 0.000133041L393 0.000188639C387.477 0.000188573 383 4.47736 383 10.0002L383 21.0002C383 26.5231 378.523 31.0002 373 31.0002L136 31.0002C130.477 31.0002 126 35.4774 126 41.0002L126 91.0002C126 96.5231 121.523 101 116 101L-14.9998 101C-20.5227 101 -24.9998 105.477 -24.9998 111L-24.9998 174C-24.9998 179.523 -29.477 184 -34.9998 184L-61 184ZM164 599C158.477 599 154 603.477 154 609L154 618.232C154 623.754 158.477 628.232 164 628.232L173.232 628.232C178.754 628.232 183.232 623.754 183.232 618.232L183.232 609C183.232 603.477 178.754 599 173.232 599L164 599ZM1111.93 66.2337C1106.41 66.2337 1101.93 61.7566 1101.93 56.2337L1101.93 47.0021C1101.93 41.4793 1106.41 37.0021 1111.93 37.0021L1121.16 37.0021C1126.69 37.0021 1131.16 41.4793 1131.16 47.0021L1131.16 56.2337C1131.16 61.7566 1126.69 66.2337 1121.16 66.2337L1111.93 66.2337Z" fill="#13002B"></path><path fill-rule="evenodd" clip-rule="evenodd" d="M-61 184C-66.5228 184 -71 188.477 -71 194L-71 495C-71 500.523 -66.5228 505 -61 505L116 505C121.523 505 126 509.477 126 515L126 556C126 561.523 130.477 566 136 566L373 566C378.523 566 383 570.477 383 576L383 585C383 590.523 387.477 595 393 595L849 595C854.523 595 859 590.523 859 585L859 556C859 550.477 863.478 546 869 546L927 546C932.523 546 937 541.523 937 536L937 484C937 478.477 941.477 474 947 474L1189 474C1194.52 474 1199 469.523 1199 464L1199 111C1199 105.477 1194.52 101 1189 101L947 101C941.477 101 937 96.5231 937 91.0002L937 54.0002C937 48.4774 932.523 44.0002 927 44.0002L869 44.0002C863.477 44.0002 859 39.5231 859 34.0003L859 10.0001C859 4.47731 854.523 0.000133107 849 0.000133041L393 0.000188639C387.477 0.000188573 383 4.47736 383 10.0002L383 21.0002C383 26.5231 378.523 31.0002 373 31.0002L136 31.0002C130.477 31.0002 126 35.4774 126 41.0002L126 91.0002C126 96.5231 121.523 101 116 101L-14.9998 101C-20.5227 101 -24.9998 105.477 -24.9998 111L-24.9998 174C-24.9998 179.523 -29.477 184 -34.9998 184L-61 184ZM164 599C158.477 599 154 603.477 154 609L154 618.232C154 623.754 158.477 628.232 164 628.232L173.232 628.232C178.754 628.232 183.232 623.754 183.232 618.232L183.232 609C183.232 603.477 178.754 599 173.232 599L164 599ZM1111.93 66.2337C1106.41 66.2337 1101.93 61.7566 1101.93 56.2337L1101.93 47.0021C1101.93 41.4793 1106.41 37.0021 1111.93 37.0021L1121.16 37.0021C1126.69 37.0021 1131.16 41.4793 1131.16 47.0021L1131.16 56.2337C1131.16 61.7566 1126.69 66.2337 1121.16 66.2337L1111.93 66.2337Z" fill="url(#paint0_radial_1327_2501)"></path><defs><radialGradient id="paint0_radial_1327_2501" cx="0" cy="0" r="1" gradientUnits="userSpaceOnUse" gradientTransform="translate(1175 741) rotate(-144.611) scale(1666.55 1666.55)"><stop stop-color="#FF9900"></stop><stop offset="0.621341" stop-color="#8000FF" stop-opacity="0.65"></stop><stop offset="0.994059" stop-opacity="0"></stop></radialGradient></defs></svg> 