<?xml version="1.0" encoding="UTF-8"?> <svg xmlns="http://www.w3.org/2000/svg" width="1074" height="215" viewBox="0 0 1074 215" fill="none"> <path d="M1049 105C1051.21 105 1053 106.791 1053 109V125C1053 127.209 1051.21 129 1049 129H1033C1030.79 129 1029 127.209 1029 125V109C1029 106.791 1030.79 105 1033 105H1049Z" fill="black"></path> <path d="M1064 29H998C992.477 29 988 33.4772 988 39V131C988 136.523 983.523 141 978 141H864C858.477 141 854 145.477 854 151V205C854 210.523 849.523 215 844 215L571 215C565.477 215 561 210.523 561 205V119C561 113.477 556.523 109 551 109H518C512.477 109 508 113.477 508 119V152C508 157.523 503.523 162 498 162L167 162C161.477 162 157 157.523 157 152V135C157 129.477 152.523 125 147 125H87C81.4772 125 77 120.523 77 115V71.9999C77 66.4771 72.5228 61.9999 67 61.9999H10C4.47715 61.9999 -2.41411e-07 57.5227 0 51.9999L0 0H1074V19C1074 24.5228 1069.52 29 1064 29Z" fill="black"></path> <path d="M30.0001 144L30.0001 160C30.0001 162.209 28.2093 164 26.0001 164H10.0001C7.79101 164 6.00015 162.209 6.00015 160L6.00015 144C6.00015 141.791 7.79101 140 10.0001 140H26.0001C28.2093 140 30.0001 141.791 30.0001 144Z" fill="black"></path> </svg> 