<?xml version="1.0" encoding="UTF-8"?> <svg xmlns="http://www.w3.org/2000/svg" width="699" height="765" viewBox="0 0 699 765" fill="none"><path fill-rule="evenodd" clip-rule="evenodd" d="M576.361 754.716C576.361 760.239 571.884 764.716 566.361 764.716L248.266 764.716C242.743 764.716 238.266 760.239 238.266 754.716L238.266 604.256C238.266 598.734 242.743 594.256 248.266 594.256L360.696 594.256L688.791 594.256C694.313 594.256 698.791 598.734 698.791 604.256L698.791 619.102C698.791 624.625 694.313 629.102 688.791 629.102L586.361 629.102C580.838 629.102 576.361 633.579 576.361 639.102L576.361 754.716ZM555.283 508.999C549.76 508.999 545.283 504.522 545.283 498.999L545.283 484.999C545.283 479.477 549.76 474.999 555.283 474.999L681 475C686.523 475 691 470.522 691 465L691 324.999C691 319.477 686.523 314.999 681 314.999L659.82 314.999C654.297 314.999 649.82 310.522 649.82 304.999L649.82 221.897C649.82 216.375 645.342 211.897 639.82 211.897L631.565 211.897C626.042 211.897 621.565 207.42 621.565 201.897L621.565 163.511C621.565 157.989 617.088 153.511 611.565 153.511L604.254 153.511C598.731 153.511 594.254 149.034 594.254 143.511L594.254 115.479C594.254 109.956 589.777 105.479 584.254 105.479L148.439 105.479C142.916 105.479 138.439 109.956 138.439 115.479L138.439 143.511C138.439 149.034 133.962 153.511 128.439 153.511L75.9226 153.511C70.3997 153.511 65.9226 157.989 65.9226 163.511L65.9226 214.142C65.9226 219.665 61.4454 224.142 55.9226 224.142L10 224.142C4.47719 224.142 3.00722e-05 228.619 2.91065e-05 234.142L0 400.612C-9.65645e-07 406.135 4.47715 410.612 10 410.612L97 410.612C102.523 410.612 107 415.089 107 420.612L107 464.999C107 470.522 111.477 474.999 117 474.999L134.09 474.999C139.613 474.999 144.09 479.477 144.09 484.999L144.09 543.761C144.09 549.284 148.567 553.761 154.09 553.761L172 553.761C177.523 553.761 182 558.239 182 563.761L182 583.999C182 589.522 186.477 593.999 192 593.999L681 594C686.523 594 691 589.522 691 584L691 518.999C691 513.477 686.523 508.999 681 508.999L555.283 508.999ZM471.054 72.8756C471.054 78.3984 466.577 82.8756 461.054 82.8756L346.809 82.8756C341.286 82.8756 336.809 78.3984 336.809 72.8756L336.809 10.0001C336.809 4.47723 341.286 8.2717e-05 346.809 8.36827e-05L461.054 0.000103658C466.577 0.000104623 471.054 4.47726 471.054 10.0001L471.054 72.8756Z" fill="url(#paint0_radial_840_71)"></path><defs><radialGradient id="paint0_radial_840_71" cx="0" cy="0" r="1" gradientUnits="userSpaceOnUse" gradientTransform="translate(101.406 111.259) rotate(44.0692) scale(752.655 691.992)"><stop stop-color="#FF9900"></stop><stop offset="0.336956" stop-color="#8000FF" stop-opacity="0.7"></stop><stop offset="0.758011" stop-color="#8000FF" stop-opacity="0.3"></stop></radialGradient></defs></svg> 