<?xml version="1.0" encoding="UTF-8"?> <svg xmlns="http://www.w3.org/2000/svg" width="637" height="753" viewBox="0 0 637 753" fill="none"> <path fill-rule="evenodd" clip-rule="evenodd" d="M248.163 10C248.163 4.47719 243.686 4.26074e-05 238.163 4.16417e-05L79.5604 1.39108e-05C74.0376 1.29451e-05 69.5604 4.47716 69.5604 10L69.5604 80.2413C69.5604 85.7641 74.0376 90.2413 79.5604 90.2413L101.649 90.2413C107.172 90.2413 111.649 94.7184 111.649 100.241L111.649 168.299C111.649 173.822 107.172 178.299 101.649 178.299L9.99997 178.299C4.47712 178.299 -3.19576e-05 182.776 -3.29233e-05 188.299L-3.61303e-05 206.641C-3.6462e-05 208.538 1.53808 210.077 3.43545 210.077V210.077C5.33282 210.077 6.87093 211.615 6.87093 213.512L6.87093 254.453C6.87093 259.976 11.3481 264.453 16.8709 264.453L141 264.453C146.523 264.453 151 268.93 151 274.453L151 314.774C151 320.297 146.523 324.774 141 324.774L36.9999 324.774C31.4771 324.774 26.9999 329.252 26.9999 334.774L26.9999 455.547C26.9999 460.423 30.9531 464.376 35.8297 464.376V464.376C40.7062 464.376 44.6595 468.33 44.6595 473.206L44.6594 548.768C44.6594 554.291 49.1366 558.769 54.6594 558.769L60.4257 558.769C65.9486 558.769 70.4257 563.246 70.4257 568.769L70.4257 602.014C70.4257 607.537 74.9029 612.014 80.4257 612.014L85.3317 612.014C90.8545 612.014 95.3317 616.492 95.3317 622.014L95.3317 645.817C95.3317 651.34 99.8088 655.817 105.332 655.817L142 655.817C147.523 655.817 152 660.295 152 665.817L152 688C152 693.523 156.477 698 162 698L197.684 698C203.207 698 207.684 702.477 207.684 708L207.684 742.011C207.684 747.534 212.162 752.011 217.684 752.011L320.109 752.011C325.632 752.011 330.109 747.534 330.109 742.011L330.109 708C330.109 702.477 334.587 698 340.109 698L464 698C469.523 698 474 693.523 474 688L474 665.817C474 660.295 478.477 655.817 484 655.817L501.014 655.817C506.537 655.817 511.014 651.34 511.014 645.817L511.014 622.014C511.014 616.492 515.491 612.014 521.014 612.014L567.146 612.014C572.669 612.014 577.146 607.537 577.146 602.014L577.146 539C577.146 533.477 581.623 529 587.146 529L627 529C632.523 529 637 524.523 637 519L637 388C637 382.477 632.523 378 627 378L569.486 378C563.963 378 559.486 373.523 559.486 368L559.486 334.775C559.486 329.252 555.009 324.775 549.486 324.775L526.869 324.775C521.346 324.775 516.869 320.297 516.869 314.775L516.869 274.453C516.869 268.93 521.346 264.453 526.869 264.453L582.449 264.453C587.972 264.453 592.449 259.976 592.449 254.453L592.449 197C592.449 191.477 587.972 187 582.449 187L429.976 187C424.453 187 419.976 182.523 419.976 177L419.976 64.6252C419.976 59.1023 415.499 54.6252 409.976 54.6252L258.163 54.6251C252.64 54.6251 248.163 50.148 248.163 44.6251L248.163 10Z" fill="url(#paint0_radial_840_109)"></path> <defs> <radialGradient id="paint0_radial_840_109" cx="0" cy="0" r="1" gradientUnits="userSpaceOnUse" gradientTransform="translate(544.787 638.058) rotate(-132.608) scale(728.489 667.792)"> <stop stop-color="#FF9900"></stop> <stop offset="0.336956" stop-color="#8000FF" stop-opacity="0.7"></stop> <stop offset="0.758011" stop-color="#8000FF" stop-opacity="0.3"></stop> </radialGradient> </defs> </svg> 